<?xml version="1.0" encoding="UTF-8"?>
<svg version="1.1" xmlns="http://www.w3.org/2000/svg" width="500" height="500">
<path d="M0 0 C165 0 330 0 500 0 C500 165 500 330 500 500 C335 500 170 500 0 500 C0 335 0 170 0 0 Z " fill="#222323" transform="translate(0,0)"/>
<path d="M0 0 C1.06950394 -0.00189835 2.13900787 -0.00379669 3.24092102 -0.00575256 C6.75248709 -0.00943677 10.26384314 0.00121134 13.77539062 0.01245117 C16.22961401 0.01364454 18.68383786 0.0140958 21.13806152 0.01383972 C26.27224605 0.01540059 31.40636045 0.02365956 36.54052734 0.03710938 C43.10735713 0.05409843 49.67410998 0.05792341 56.24095917 0.05716419 C61.30597665 0.05743669 66.37097746 0.06293069 71.43598938 0.07016563 C73.85679498 0.07333792 76.27760247 0.07531633 78.69841003 0.07605934 C82.08673286 0.07823823 85.47497574 0.0870158 88.86328125 0.09765625 C89.85471634 0.09720306 90.84615143 0.09674988 91.86763 0.09628296 C97.63276759 0.12262739 103.21257391 0.50567142 108.93164062 1.24291992 C108.93164062 1.90291992 108.93164062 2.56291992 108.93164062 3.24291992 C109.60710937 3.2197168 110.28257812 3.19651367 110.97851562 3.17260742 C112.3165625 3.14553711 112.3165625 3.14553711 113.68164062 3.11791992 C115.00421875 3.08311523 115.00421875 3.08311523 116.35351562 3.04760742 C119.08385773 3.25445152 120.56189556 3.93956013 122.93164062 5.24291992 C124.92274463 5.62582454 126.92264575 5.96896608 128.93164062 6.24291992 C128.93164062 6.90291992 128.93164062 7.56291992 128.93164062 8.24291992 C129.96289062 8.36666992 130.99414062 8.49041992 132.05664062 8.61791992 C135.57457384 9.1853285 138.63385987 9.9081039 141.93164062 11.24291992 C142.26164063 11.90291992 142.59164062 12.56291992 142.93164062 13.24291992 C144.67602854 14.29782229 144.67602854 14.29782229 146.74414062 15.24291992 C147.77474609 15.73791992 147.77474609 15.73791992 148.82617188 16.24291992 C150.25191568 16.9200821 151.67769808 17.59716303 153.10351562 18.27416992 C154.93164062 19.24291992 154.93164062 19.24291992 156.36914062 20.74291992 C158.34730013 22.64195304 160.36722844 23.34191024 162.93164062 24.24291992 C162.93164062 25.23291992 162.93164062 26.22291992 162.93164062 27.24291992 C163.63289063 27.42854492 164.33414062 27.61416992 165.05664062 27.80541992 C168.52647058 29.5403349 170.22889554 31.67558381 172.59960938 34.68432617 C173.86813357 36.37341215 173.86813357 36.37341215 175.93164062 37.24291992 C175.93164062 37.90291992 175.93164062 38.56291992 175.93164062 39.24291992 C176.59164063 39.24291992 177.25164062 39.24291992 177.93164062 39.24291992 C179.43945313 40.70385742 179.43945313 40.70385742 181.05664062 42.61791992 C181.59546875 43.2444043 182.13429688 43.87088867 182.68945312 44.51635742 C183.93164062 46.24291992 183.93164062 46.24291992 183.93164062 48.24291992 C184.59164063 48.24291992 185.25164062 48.24291992 185.93164062 48.24291992 C188.93164062 52.62753531 188.93164062 52.62753531 188.93164062 55.24291992 C189.59164063 55.24291992 190.25164062 55.24291992 190.93164062 55.24291992 C190.93164062 56.56291992 190.93164062 57.88291992 190.93164062 59.24291992 C191.92164063 59.57291992 192.91164063 59.90291992 193.93164062 60.24291992 C193.93164062 61.23291992 193.93164062 62.22291992 193.93164062 63.24291992 C194.59164063 63.24291992 195.25164062 63.24291992 195.93164062 63.24291992 C196.26164062 65.22291992 196.59164063 67.20291992 196.93164062 69.24291992 C197.59164063 69.24291992 198.25164062 69.24291992 198.93164062 69.24291992 C201.93164062 78.24291992 201.93164062 78.24291992 201.93164062 81.24291992 C202.59164063 81.24291992 203.25164062 81.24291992 203.93164062 81.24291992 C204.22460938 84.27026367 204.22460938 84.27026367 204.51757812 87.29760742 C204.79538812 89.46960237 204.79538812 89.46960237 206.93164062 91.24291992 C207.34570313 93.40698242 207.34570313 93.40698242 207.55664062 95.86791992 C207.63140625 96.68518555 207.70617187 97.50245117 207.78320312 98.34448242 C207.8321875 98.9709668 207.88117188 99.59745117 207.93164062 100.24291992 C208.26164062 100.24291992 208.59164063 100.24291992 208.93164062 100.24291992 C210.70557466 141.69505186 210.70557466 141.69505186 207.93164062 147.24291992 C207.77738706 148.59406692 207.65710048 149.94921191 207.55664062 151.30541992 C207.06828075 156.23705403 205.66886826 160.62123885 203.93164062 165.24291992 C203.27164062 165.24291992 202.61164063 165.24291992 201.93164062 165.24291992 C201.82851563 166.27416992 201.72539062 167.30541992 201.61914062 168.36791992 C200.92271966 172.29320172 199.84309594 174.7739825 197.93164062 178.24291992 C197.30396626 179.53328912 196.67913623 180.82504444 196.05664062 182.11791992 C193.96645585 186.28221113 191.80886245 190.56320765 188.93164062 194.24291992 C188.27164062 194.24291992 187.61164063 194.24291992 186.93164062 194.24291992 C186.82851563 195.00604492 186.72539062 195.76916992 186.61914062 196.55541992 C185.88452869 199.42708476 185.26003413 200.47334086 182.93164062 202.24291992 C182.27164062 202.24291992 181.61164063 202.24291992 180.93164062 202.24291992 C180.66351563 202.82041992 180.39539063 203.39791992 180.11914062 203.99291992 C178.90234873 206.29842035 177.62830183 208.26348185 175.93164062 210.24291992 C175.27164062 210.24291992 174.61164063 210.24291992 173.93164062 210.24291992 C173.60164063 211.23291992 173.27164062 212.22291992 172.93164062 213.24291992 C172.27164062 213.24291992 171.61164063 213.24291992 170.93164062 213.24291992 C170.93164062 213.90291992 170.93164062 214.56291992 170.93164062 215.24291992 C170.12726563 215.51104492 169.32289063 215.77916992 168.49414062 216.05541992 C167.64851563 216.44729492 166.80289062 216.83916992 165.93164062 217.24291992 C165.60164063 218.23291992 165.27164062 219.22291992 164.93164062 220.24291992 C164.27164062 220.24291992 163.61164063 220.24291992 162.93164062 220.24291992 C162.93164062 220.90291992 162.93164062 221.56291992 162.93164062 222.24291992 C159.97682571 224.98667663 159.15692155 225.24291992 154.93164062 225.24291992 C154.60164063 226.23291992 154.27164062 227.22291992 153.93164062 228.24291992 C151.32921649 229.89112188 150.06915283 230.24291992 146.93164062 230.24291992 C146.60164062 231.23291992 146.27164063 232.22291992 145.93164062 233.24291992 C144.61164063 233.24291992 143.29164063 233.24291992 141.93164062 233.24291992 C141.93164062 233.90291992 141.93164062 234.56291992 141.93164062 235.24291992 C140.96226562 235.55229492 139.99289062 235.86166992 138.99414062 236.18041992 C136.09098271 236.93815334 136.09098271 236.93815334 134.93164062 238.24291992 C133.26546947 238.28355824 131.59775968 238.28564092 129.93164062 238.24291992 C129.93164062 238.90291992 129.93164062 239.56291992 129.93164062 240.24291992 C124.5578295 242.26286311 119.62220173 243.5945534 113.87695312 243.93432617 C111.61127629 244.15497711 111.61127629 244.15497711 108.93164062 246.24291992 C105.8754425 246.48342896 105.8754425 246.48342896 102.07348633 246.4699707 C101.36935954 246.47021177 100.66523275 246.47045284 99.93976879 246.47070122 C97.66219095 246.46920931 95.3849411 246.45398246 93.10742188 246.43823242 C91.70064451 246.4352916 90.29386496 246.4332514 88.88708496 246.43212891 C83.67273679 246.4216461 78.45843548 246.39372365 73.24414062 246.36791992 C55.76445312 246.30604492 55.76445312 246.30604492 37.93164062 246.24291992 C37.93164062 276.27291992 37.93164062 306.30291992 37.93164062 337.24291992 C17.80164063 337.24291992 -2.32835937 337.24291992 -23.06835938 337.24291992 C-23.06835938 286.09291992 -23.06835938 234.94291992 -23.06835938 182.24291992 C37.36914062 181.80541992 37.36914062 181.80541992 56.48413086 181.67480469 C62.11640686 181.63157282 62.11640686 181.63157282 67.74867249 181.58702087 C70.26611525 181.56774294 72.78357354 181.55043464 75.30104065 181.53465271 C79.10430902 181.51043366 82.90748196 181.48005271 86.71069336 181.44824219 C87.8406671 181.44247193 88.97064085 181.43670168 90.13485622 181.43075657 C91.15221387 181.42098254 92.16957151 181.41120852 93.21775818 181.40113831 C94.5548189 181.39145948 94.5548189 181.39145948 95.91889095 181.38158512 C97.92901843 181.46448707 97.92901843 181.46448707 98.93164062 180.24291992 C100.65887404 180.1105085 102.3887684 180.0121514 104.11914062 179.93041992 C109.15059903 179.52686181 111.9092267 178.40338801 115.93164062 175.24291992 C116.72054687 174.93483398 117.50945312 174.62674805 118.32226562 174.30932617 C128.41474634 170.18470456 136.04283011 160.68338161 140.93164062 151.24291992 C141.28097656 150.65124023 141.6303125 150.05956055 141.99023438 149.44995117 C144.85471411 144.36104029 145.765113 139.44904675 146.53710938 133.68432617 C146.93164062 131.24291992 146.93164062 131.24291992 147.93164062 130.24291992 C148.38617781 123.54113917 148.06277993 117.63633784 145.93164062 111.24291992 C145.37354959 108.9343287 144.83322673 106.62140051 144.30664062 104.30541992 C144.04625 103.16202148 143.78585937 102.01862305 143.51757812 100.84057617 C143.22753906 99.55473633 143.22753906 99.55473633 142.93164062 98.24291992 C142.27164063 98.24291992 141.61164063 98.24291992 140.93164062 98.24291992 C140.47789062 97.10854492 140.02414062 95.97416992 139.55664062 94.80541992 C138.36068256 91.195703 138.36068256 91.195703 135.93164062 90.24291992 C135.30664062 87.68041992 135.30664062 87.68041992 134.93164062 85.24291992 C134.27164063 85.24291992 133.61164063 85.24291992 132.93164062 85.24291992 C131.66992188 83.85229492 131.66992188 83.85229492 130.24414062 81.99291992 C127.19337424 78.27927096 124.20931132 76.38175527 119.93164062 74.24291992 C119.93164062 73.58291992 119.93164062 72.92291992 119.93164062 72.24291992 C118.61164063 71.91291992 117.29164063 71.58291992 115.93164062 71.24291992 C115.93164062 70.58291992 115.93164062 69.92291992 115.93164062 69.24291992 C114.79726563 69.28416992 113.66289062 69.32541992 112.49414062 69.36791992 C109.38972395 69.37814173 106.7194234 69.03063682 103.71897888 68.25028992 C99.01407963 67.16202124 94.58551216 66.96604677 89.77172852 67 C88.90555908 66.99810165 88.03938965 66.99620331 87.14697266 66.99424744 C84.31598536 66.99057594 81.4852609 67.00118701 78.65429688 67.01245117 C76.67654958 67.01364455 74.69880171 67.0140958 72.72105408 67.01383972 C68.59321503 67.01539801 64.46546353 67.02364145 60.33764648 67.03710938 C55.03909764 67.05417641 49.74064408 67.05792113 44.44207096 67.05716419 C40.36642035 67.05743551 36.29079068 67.06290923 32.21514702 67.07016563 C30.26024979 67.07335218 28.3053502 67.07531968 26.35045052 67.07605934 C23.62885575 67.07821863 20.90736382 67.08695163 18.18579102 67.09765625 C17.37490524 67.09720306 16.56401947 67.09674988 15.7285614 67.09628296 C11.69944472 67.02685502 11.69944472 67.02685502 7.93164062 68.24291992 C5.11220847 68.55619016 2.29185981 68.75321956 -0.53710938 68.96166992 C-3.05909941 69.09424604 -3.05909941 69.09424604 -5.06835938 70.24291992 C-7.06795949 70.28291192 -9.0688318 70.28638791 -11.06835938 70.24291992 C-11.06835938 70.90291992 -11.06835938 71.56291992 -11.06835938 72.24291992 C-12.86132813 73.57495117 -12.86132813 73.57495117 -15.25585938 75.05541992 C-21.54282445 79.11882615 -28.63101332 84.93088176 -31.06835938 92.24291992 C-31.72835937 92.24291992 -32.38835937 92.24291992 -33.06835938 92.24291992 C-33.56335938 94.22291992 -33.56335938 94.22291992 -34.06835938 96.24291992 C-34.72835937 96.24291992 -35.38835937 96.24291992 -36.06835938 96.24291992 C-36.28492188 97.44948242 -36.28492188 97.44948242 -36.50585938 98.68041992 C-37.06835938 101.24291992 -37.06835938 101.24291992 -38.06835938 102.24291992 C-38.21273437 103.37729492 -38.35710937 104.51166992 -38.50585938 105.68041992 C-39.06835938 109.24291992 -39.06835938 109.24291992 -41.06835938 111.24291992 C-41.29009582 114.0265042 -41.39370417 116.71819982 -41.41210938 119.50463867 C-41.42673218 120.32865677 -41.44135498 121.15267487 -41.4564209 122.00166321 C-41.50300751 124.64453241 -41.53712567 127.28732736 -41.56835938 129.93041992 C-41.60968949 133.39292977 -41.66352452 136.85492736 -41.72460938 140.31713867 C-41.72988647 141.10593918 -41.73516357 141.89473969 -41.74060059 142.70744324 C-41.82713865 147.57036898 -42.53182534 151.62296692 -44.06835938 156.24291992 C-44.72835937 156.24291992 -45.38835937 156.24291992 -46.06835938 156.24291992 C-46.35710937 156.82041992 -46.64585937 157.39791992 -46.94335938 157.99291992 C-47.50023437 159.10666992 -47.50023437 159.10666992 -48.06835938 160.24291992 C-48.37773437 160.94416992 -48.68710938 161.64541992 -49.00585938 162.36791992 C-50.06835938 164.24291992 -50.06835938 164.24291992 -53.06835938 166.24291992 C-53.39835937 167.23291992 -53.72835937 168.22291992 -54.06835938 169.24291992 C-62.38310359 175.40520426 -73.1802198 175.69738716 -83.06835938 174.24291992 C-87.32871514 172.98091464 -91.17652282 171.3796145 -95.06835938 169.24291992 C-95.06835938 168.58291992 -95.06835938 167.92291992 -95.06835938 167.24291992 C-96.02742188 166.84073242 -96.02742188 166.84073242 -97.00585938 166.43041992 C-99.06835938 165.24291992 -99.06835938 165.24291992 -100.06835938 162.24291992 C-101.05835937 161.91291992 -102.04835938 161.58291992 -103.06835938 161.24291992 C-108.00748293 153.83423459 -108.51748379 144.99114737 -108.43164062 136.31713867 C-108.43213913 135.32591507 -108.43263763 134.33469147 -108.43315125 133.31343079 C-108.43083002 131.23871839 -108.4212185 129.16400213 -108.40454102 127.08935547 C-108.38078791 123.92088669 -108.38401521 120.75325306 -108.390625 117.5847168 C-108.38505206 115.5580191 -108.37794461 113.53132491 -108.36914062 111.50463867 C-108.37005203 110.56392014 -108.37096344 109.6232016 -108.37190247 108.65397644 C-108.31931389 103.77140641 -107.92758803 99.83335323 -106.06835938 95.24291992 C-105.75334514 93.81035518 -105.45957075 92.37285093 -105.19335938 90.93041992 C-104.32422986 86.83798329 -102.85884836 83.34498182 -101.07617188 79.57495117 C-99.99896166 77.08233684 -99.24128249 74.60560731 -98.50585938 71.99291992 C-97.46660835 68.36118943 -96.347148 65.31433067 -94.06835938 62.24291992 C-93.07835938 61.74791992 -93.07835938 61.74791992 -92.06835938 61.24291992 C-91.96523437 60.66541992 -91.86210938 60.08791992 -91.75585938 59.49291992 C-91.06835938 57.24291992 -91.06835938 57.24291992 -88.63085938 54.86791992 C-85.87362348 52.04343437 -85.03430166 50.01887614 -84.06835938 46.24291992 C-83.40835938 46.24291992 -82.74835938 46.24291992 -82.06835938 46.24291992 C-81.82085937 45.72729492 -81.57335937 45.21166992 -81.31835938 44.68041992 C-79.67254322 41.47107841 -77.87074978 38.36706329 -76.06835938 35.24291992 C-75.40835938 35.24291992 -74.74835938 35.24291992 -74.06835938 35.24291992 C-74.06835938 34.58291992 -74.06835938 33.92291992 -74.06835938 33.24291992 C-72.41470531 32.22154535 -70.74459436 31.22679698 -69.06835938 30.24291992 C-67.99192669 29.3638771 -66.92946649 28.46747624 -65.88085938 27.55541992 C-63.06835938 25.24291992 -63.06835938 25.24291992 -61.06835938 25.24291992 C-61.06835938 24.25291992 -61.06835938 23.26291992 -61.06835938 22.24291992 C-53.63978795 17.81434849 -53.63978795 17.81434849 -50.06835938 17.24291992 C-50.06835938 16.58291992 -50.06835938 15.92291992 -50.06835938 15.24291992 C-46.24245582 12.43725731 -41.87075183 10.91783396 -37.48242188 9.21557617 C-34.92325657 8.22591245 -34.92325657 8.22591245 -32.00585938 6.68041992 C-21.7898343 1.6810885 -11.28032799 -0.0639375 0 0 Z " fill="#A5A5A5" transform="translate(214.068359375,80.757080078125)"/>
<path d="M0 0 C0.91644287 0.00523682 1.83288574 0.01047363 2.77709961 0.01586914 C4.26113281 0.02070313 4.26113281 0.02070313 5.77514648 0.02563477 C6.81606445 0.03401367 7.85698242 0.04239258 8.92944336 0.05102539 C10.49662109 0.05779297 10.49662109 0.05779297 12.09545898 0.06469727 C14.68600996 0.07652627 17.27644895 0.0930085 19.86694336 0.11352539 C20.36194336 1.59852539 20.36194336 1.59852539 20.86694336 3.11352539 C21.58881836 3.21665039 22.31069336 3.31977539 23.05444336 3.42602539 C29.38674289 4.97392083 33.82602202 9.17785593 37.86694336 14.11352539 C42.93880317 22.48761569 42.38598424 31.6401109 42.25756836 41.05883789 C42.25009372 42.68121641 42.24440658 44.30360404 42.24041748 45.92599487 C42.22525714 50.16432296 42.1860604 54.40208928 42.14160156 58.64019775 C42.09318311 63.7422322 42.075069 68.8444561 42.05178833 73.94665527 C42.01320155 81.66933417 41.9364828 89.39078423 41.86694336 97.11352539 C20.41694336 97.11352539 -1.03305664 97.11352539 -23.13305664 97.11352539 C-23.25338307 77.55825257 -23.25338307 77.55825257 -23.27954102 69.22680664 C-23.29747908 63.54036062 -23.31870686 57.85405942 -23.359375 52.16772461 C-23.39195528 47.58360456 -23.40990688 42.9996398 -23.41768837 38.4154129 C-23.42323427 36.66589157 -23.43406401 34.9163788 -23.45024681 33.16692352 C-23.4720036 30.71762175 -23.47502433 28.26896283 -23.47363281 25.81958008 C-23.48441864 25.09525284 -23.49520447 24.3709256 -23.50631714 23.62464905 C-23.48701305 20.48741717 -23.28917819 18.39100126 -21.73677063 15.63189697 C-20.13305664 14.11352539 -20.13305664 14.11352539 -18.13305664 14.11352539 C-17.97836914 13.21633789 -17.97836914 13.21633789 -17.82055664 12.30102539 C-16.37996291 7.71731806 -12.56891721 6.12074506 -8.50805664 3.98852539 C-1.05405397 0.05609879 -1.05405397 0.05609879 0 0 Z " fill="#FDFDFD" transform="translate(130.133056640625,324.886474609375)"/>
<path d="M0 0 C5.54331711 3.51748667 9.06967075 8.89651224 11.125 15.0625 C11.34825814 17.12143621 11.53205759 19.18483653 11.6875 21.25 C11.77128906 22.33667969 11.85507813 23.42335938 11.94140625 24.54296875 C12.00199219 25.37441406 12.06257813 26.20585937 12.125 27.0625 C11.135 27.0625 10.145 27.0625 9.125 27.0625 C9.104375 27.743125 9.08375 28.42375 9.0625 29.125 C7.26877784 34.74532942 2.77600158 38.09681983 -2.1875 41 C-8.43831829 42.80108323 -14.18300894 43.16199019 -20.1875 40.375 C-23.64092141 38.3946678 -26.27241345 36.09885097 -28.875 33.0625 C-29.638125 32.2375 -30.40125 31.4125 -31.1875 30.5625 C-34.05090453 24.62358689 -33.95147728 17.99259753 -32.21484375 11.65234375 C-29.64434423 5.8770656 -25.17795432 1.65119373 -19.51171875 -1.07421875 C-13.11969689 -3.16701405 -6.06127695 -2.97927172 0 0 Z " fill="#F4F4F4" transform="translate(149.875,277.9375)"/>
<path d="M0 0 C3 1 3 1 5 4 C5 5.32 5 6.64 5 8 C5.66 8 6.32 8 7 8 C7.99963678 11.22698282 8.99432361 14.45516777 9.9765625 17.6875 C10.68907661 19.99365254 11.45084891 22.28491939 12.25 24.5625 C13.79171647 31.62870047 13.83717827 38.32879704 11 45 C10.77708946 47.00619487 10.55448632 49.01243495 10.33984375 51.01953125 C9.82495102 54.02011305 8.4883149 56.36682749 7 59 C6.5875 59.928125 6.175 60.85625 5.75 61.8125 C-0.08427259 72.43921079 -9.59095664 82.54769039 -21 87 C-21.70125 87.515625 -22.4025 88.03125 -23.125 88.5625 C-26.94464104 90.47232052 -30.44630427 90.55179783 -34.671875 90.7890625 C-36.95924469 90.74577242 -36.95924469 90.74577242 -38 92 C-39.56887635 92.09591199 -41.14207792 92.12187996 -42.71388245 92.12025452 C-44.23991891 92.12232076 -44.23991891 92.12232076 -45.7967844 92.12442875 C-47.49174502 92.11903159 -47.49174502 92.11903159 -49.22094727 92.11352539 C-50.42044227 92.11364593 -51.61993727 92.11376646 -52.8557806 92.11389065 C-56.759341 92.11314105 -60.66285433 92.10551066 -64.56640625 92.09765625 C-66.96805803 92.09618698 -69.36971014 92.09516618 -71.7713623 92.09460449 C-80.7017464 92.0893499 -89.63212366 92.07538885 -98.5625 92.0625 C-128.4790625 92.0315625 -128.4790625 92.0315625 -159 92 C-159 143.15 -159 194.3 -159 247 C-138.87 247 -118.74 247 -98 247 C-98 216.97 -98 186.94 -98 156 C-62.6875 155.625 -62.6875 155.625 -51.5378418 155.52197266 C-48.23940145 155.48206336 -48.23940145 155.48206336 -44.94099426 155.43954468 C-43.47199841 155.4218606 -42.00295276 155.4080548 -40.53388977 155.39730835 C-38.3084308 155.38027554 -36.08344028 155.35093548 -33.8581543 155.31884766 C-32.60350876 155.30552399 -31.34886322 155.29220032 -30.05619812 155.2784729 C-26.82712806 155.22918723 -26.82712806 155.22918723 -24 153 C-21.9140625 152.65625 -21.9140625 152.65625 -19.625 152.5 C-16.05310375 152.18159758 -13.30889726 151.41809883 -10 150 C-8.68 150 -7.36 150 -6 150 C-6 149.34 -6 148.68 -6 148 C-5.030625 147.690625 -4.06125 147.38125 -3.0625 147.0625 C-0.15934208 146.30476658 -0.15934208 146.30476658 1 145 C2.66617115 144.95936168 4.33388095 144.957279 6 145 C6 144.34 6 143.68 6 143 C6.639375 142.87625 7.27875 142.7525 7.9375 142.625 C8.618125 142.41875 9.29875 142.2125 10 142 C10.33 141.34 10.66 140.68 11 140 C13.33333333 139 15.66666667 138 18 137 C18.33 136.34 18.66 135.68 19 135 C21.90259811 133.6250851 23.76138705 133 27 133 C26.43410156 133.39832031 25.86820313 133.79664063 25.28515625 134.20703125 C24.55167969 134.73683594 23.81820312 135.26664063 23.0625 135.8125 C22.33160156 136.33457031 21.60070312 136.85664063 20.84765625 137.39453125 C18.73116774 138.95867127 18.73116774 138.95867127 18 142 C15.49934511 143.14808104 13.08075232 144.13674389 10.5 145.0625 C5.42864462 146.49370418 5.42864462 146.49370418 2 150 C-0.46875 150.81640625 -0.46875 150.81640625 -3.5 151.5625 C-7.04788817 152.20840612 -7.04788817 152.20840612 -10 154 C-13.03623255 154.28549649 -16.07257785 154.44868814 -19.1171875 154.62109375 C-22.19258834 154.80950152 -22.19258834 154.80950152 -25 157 C-34.27026148 159.02794694 -43.60576831 159.27719669 -53.0546875 159.1953125 C-54.18076416 159.19329834 -55.30684082 159.19128418 -56.46704102 159.18920898 C-60.60306983 159.17888356 -64.73903978 159.1509632 -68.875 159.125 C-82.796875 159.063125 -82.796875 159.063125 -97 159 C-97 188.37 -97 217.74 -97 248 C-118.12 248 -139.24 248 -161 248 C-161 196.19 -161 144.38 -161 91 C-101.8125 90.6875 -101.8125 90.6875 -83.18676758 90.61206055 C-77.63318782 90.57545715 -77.63318782 90.57545715 -72.07963562 90.5349884 C-69.62356939 90.51893499 -67.16746157 90.508582 -64.71134949 90.50288391 C-60.97116147 90.49306473 -57.23150841 90.46463466 -53.49145508 90.43237305 C-52.41402699 90.43379901 -51.33659891 90.43522497 -50.22652149 90.43669415 C-34.15268585 90.24031076 -19.89503658 85.94427877 -8 75 C-5.07239904 71.99698075 -2.64662614 68.89202543 -1 65 C-0.34 65 0.32 65 1 65 C1.10957031 64.36191406 1.21914063 63.72382813 1.33203125 63.06640625 C1.49058594 62.24011719 1.64914062 61.41382813 1.8125 60.5625 C2.03873047 59.32693359 2.03873047 59.32693359 2.26953125 58.06640625 C2.51058594 57.38449219 2.75164062 56.70257813 3 56 C3.99 55.67 4.98 55.34 6 55 C6.144375 54.113125 6.28875 53.22625 6.4375 52.3125 C6.76103819 50.40721953 7.10901265 48.50500443 7.5246582 46.61767578 C8.35138385 42.06495245 8.18450714 37.48998855 8.1875 32.875 C8.19974609 31.87339844 8.21199219 30.87179688 8.22460938 29.83984375 C8.22654297 28.87949219 8.22847656 27.91914063 8.23046875 26.9296875 C8.23457764 26.05554199 8.23868652 25.18139648 8.24291992 24.28076172 C8.14840558 21.72052816 8.14840558 21.72052816 6 19 C5.92094936 16.66800612 5.91201231 14.33167378 6 12 C5.34 12 4.68 12 4 12 C4 9.69 4 7.38 4 5 C3.34 5 2.68 5 2 5 C1.01 2.525 1.01 2.525 0 0 Z " fill="#6C6C6B" transform="translate(350,171)"/>
<path d="M0 0 C4.01413882 3.28200029 5.0780277 6.7377043 6.1875 11.625 C7.24037083 16.43386391 7.24037083 16.43386391 9 21 C9.2415932 23.67243841 9.4267007 26.32173594 9.5625 29 C9.6042334 29.80381104 9.6459668 30.60762207 9.68896484 31.43579102 C10.26476859 43.49594173 10.15134127 55.5048951 9.5625 67.5625 C9.50376709 68.80471313 9.50376709 68.80471313 9.44384766 70.07202148 C9.12316699 75.87683301 9.12316699 75.87683301 8 77 C7.7746669 79.0279979 7.55232815 81.05674874 7.37890625 83.08984375 C7 85 7 85 5 87 C4.690625 88.093125 4.38125 89.18625 4.0625 90.3125 C3.07797887 93.72936744 1.81764898 95.99692777 0 99 C-0.70670728 101.69254991 -0.70670728 101.69254991 -1 104 C-2.32 104 -3.64 104 -5 104 C-5.144375 104.721875 -5.28875 105.44375 -5.4375 106.1875 C-5.95833333 108.79166667 -6.47916667 111.39583333 -7 114 C-7.66 114 -8.32 114 -9 114 C-9.12375 114.5775 -9.2475 115.155 -9.375 115.75 C-10.00648824 118.02335767 -10.88858191 119.9253529 -12 122 C-12.66 122 -13.32 122 -14 122 C-14.33 122.99 -14.66 123.98 -15 125 C-15.66 125 -16.32 125 -17 125 C-17.28359375 125.5775 -17.5671875 126.155 -17.859375 126.75 C-21.07112952 133.08551576 -23.82941245 137.35374372 -30 141 C-30.495 141.99 -30.495 141.99 -31 143 C-32.84765625 143.8515625 -32.84765625 143.8515625 -35.0625 144.625 C-35.79597656 144.88539063 -36.52945312 145.14578125 -37.28515625 145.4140625 C-37.85105469 145.60742188 -38.41695313 145.80078125 -39 146 C-39 145.34 -39 144.68 -39 144 C-33.52380952 139 -33.52380952 139 -31 139 C-31 138.34 -31 137.68 -31 137 C-29.625 135.375 -29.625 135.375 -28 134 C-27.34 134 -26.68 134 -26 134 C-25.731875 133.4225 -25.46375 132.845 -25.1875 132.25 C-23.97070811 129.94449957 -22.69666121 127.97943808 -21 126 C-20.34 126 -19.68 126 -19 126 C-18.505 124.515 -18.505 124.515 -18 123 C-17.34 123 -16.68 123 -16 123 C-15.67 121.35 -15.34 119.7 -15 118 C-14.34 118 -13.68 118 -13 118 C-12.7525 117.113125 -12.505 116.22625 -12.25 115.3125 C-10.94802442 111.8622647 -9.31966596 109.82709289 -7 107 C-6.28752268 105.3523962 -5.62599617 103.68236471 -5 102 C-4.32149599 100.66206639 -3.63320489 99.32907063 -2.9375 98 C-1.41590733 95.01337945 -0.41996883 92.35975066 0 89 C0.66 89 1.32 89 2 89 C2.144375 87.88625 2.28875 86.7725 2.4375 85.625 C3 82 3 82 4 80 C4.20092783 78.50420396 4.36336066 77.00303276 4.5 75.5 C4.88888889 71.22222222 4.88888889 71.22222222 6 69 C6.27128927 66.09720485 6.47685045 63.2223233 6.625 60.3125 C6.67003662 59.44141602 6.71507324 58.57033203 6.76147461 57.67285156 C7.21106601 47.09576986 6.63370905 36.55894349 6 26 C5.67 26 5.34 26 5 26 C4.95101562 25.22914063 4.90203125 24.45828125 4.8515625 23.6640625 C4.77679688 22.66117188 4.70203125 21.65828125 4.625 20.625 C4.52058594 19.12839844 4.52058594 19.12839844 4.4140625 17.6015625 C4.23636036 14.84491121 4.23636036 14.84491121 2 13 C1.73008094 10.31160615 1.91262643 7.70858064 2 5 C1.34 5 0.68 5 0 5 C-0.5625 3.0625 -0.5625 3.0625 -1 1 C-0.67 0.67 -0.34 0.34 0 0 Z " fill="#545454" transform="translate(416,157)"/>
<path d="M0 0 C0.86374237 -0.00412399 1.72748474 -0.00824799 2.61740112 -0.01249695 C3.55679535 -0.00171112 4.49618958 0.00907471 5.46405029 0.02018738 C6.95722275 0.01953026 6.95722275 0.01953026 8.4805603 0.01885986 C11.77050395 0.0209497 15.05993787 0.04429044 18.34979248 0.0677948 C20.63093792 0.07339005 22.91208697 0.07766048 25.1932373 0.08065796 C31.19714308 0.09211228 37.20083113 0.12158476 43.20465088 0.1547699 C49.33112645 0.18545798 55.4576372 0.19916061 61.58416748 0.21427917 C73.60509647 0.24645369 85.62586387 0.29765734 97.64666748 0.36076355 C98.14166748 1.84576355 98.14166748 1.84576355 98.64666748 3.36076355 C99.35694092 3.34916199 100.06721436 3.33756042 100.79901123 3.3256073 C101.71811279 3.31658386 102.63721436 3.30756042 103.58416748 3.29826355 C104.50069092 3.28666199 105.41721436 3.27506042 106.36151123 3.2631073 C108.64666748 3.36076355 108.64666748 3.36076355 109.64666748 4.36076355 C111.16136196 4.59269219 112.6842131 4.77291593 114.20916748 4.92326355 C115.44860107 5.04894714 115.44860107 5.04894714 116.71307373 5.1771698 C117.35115967 5.23775574 117.98924561 5.29834167 118.64666748 5.36076355 C119.14166748 6.84576355 119.14166748 6.84576355 119.64666748 8.36076355 C120.76041748 8.31951355 121.87416748 8.27826355 123.02166748 8.23576355 C126.64666748 8.36076355 126.64666748 8.36076355 128.64666748 10.36076355 C130.16723366 10.95910909 131.71278836 11.49583011 133.27166748 11.98576355 C134.08893311 12.24615417 134.90619873 12.5065448 135.74822998 12.77482605 C136.37471436 12.96818542 137.00119873 13.1615448 137.64666748 13.36076355 C137.64666748 13.69076355 137.64666748 14.02076355 137.64666748 14.36076355 C132.71950752 14.8226848 129.13934123 13.18829185 124.64666748 11.36076355 C124.64666748 10.70076355 124.64666748 10.04076355 124.64666748 9.36076355 C123.73916748 9.40201355 122.83166748 9.44326355 121.89666748 9.48576355 C118.64666748 9.36076355 118.64666748 9.36076355 116.77166748 8.39201355 C114.25087284 7.16868674 112.18108048 6.95558563 109.39666748 6.73576355 C108.50463623 6.66099792 107.61260498 6.5862323 106.69354248 6.50920105 C106.01807373 6.46021667 105.34260498 6.4112323 104.64666748 6.36076355 C104.64666748 5.70076355 104.64666748 5.04076355 104.64666748 4.36076355 C67.35666748 4.03076355 30.06666748 3.70076355 -8.35333252 3.36076355 C-3.85333252 -0.01423645 -3.85333252 -0.01423645 0 0 Z " fill="#494949" transform="translate(218.35333251953125,77.63923645019531)"/>
<path d="M0 0 C0.33 0 0.66 0 1 0 C1 25.41 1 50.82 1 77 C22.45 77 43.9 77 66 77 C66 77.33 66 77.66 66 78 C57.42921353 78.02314216 48.85844005 78.04092467 40.28763008 78.05181217 C36.30811588 78.05703689 32.32862301 78.0641271 28.34912109 78.07543945 C24.51066757 78.08628291 20.6722346 78.09227994 16.83376694 78.09487724 C15.36730501 78.09672885 13.90084423 78.10034444 12.43439102 78.10573006 C10.38478388 78.11295983 8.33526232 78.11399012 6.28564453 78.11352539 C4.533582 78.11685631 4.533582 78.11685631 2.74612427 78.12025452 C0 78 0 78 -2 77 C-2.0463988 67.84639101 -2.0819075 58.69282269 -2.10362434 49.53912163 C-2.11404883 45.28840853 -2.1281836 41.03777607 -2.15087891 36.78710938 C-2.17265496 32.68279353 -2.18457867 28.57855511 -2.18975449 24.47418594 C-2.1934417 22.91054186 -2.2006419 21.34690187 -2.21146011 19.78329086 C-2.22603848 17.5883452 -2.22797531 15.39371698 -2.22705078 13.19873047 C-2.231492 11.95074677 -2.23593323 10.70276306 -2.24050903 9.41696167 C-1.99710783 5.95891031 -1.24539749 3.2215788 0 0 Z " fill="#5C5C5C" transform="translate(106,345)"/>
<path d="M0 0 C0.99 0.495 0.99 0.495 2 1 C1.43410156 1.39832031 0.86820312 1.79664063 0.28515625 2.20703125 C-0.81505859 3.00173828 -0.81505859 3.00173828 -1.9375 3.8125 C-3.03384766 4.59560547 -3.03384766 4.59560547 -4.15234375 5.39453125 C-6.26883226 6.95867127 -6.26883226 6.95867127 -7 10 C-9.50065489 11.14808104 -11.91924768 12.13674389 -14.5 13.0625 C-19.57135538 14.49370418 -19.57135538 14.49370418 -23 18 C-25.46875 18.81640625 -25.46875 18.81640625 -28.5 19.5625 C-32.04788817 20.20840612 -32.04788817 20.20840612 -35 22 C-38.03623255 22.28549649 -41.07257785 22.44868814 -44.1171875 22.62109375 C-47.19258834 22.80950152 -47.19258834 22.80950152 -50 25 C-59.19947817 27.00706814 -68.45944733 27.27771827 -77.8359375 27.1953125 C-79.0813028 27.1924826 -80.32666809 27.18965271 -81.60977173 27.18673706 C-85.53161826 27.17566998 -89.45322418 27.15059149 -93.375 27.125 C-96.05728584 27.11380454 -98.73957807 27.10569195 -101.421875 27.09765625 C-107.94799678 27.075775 -114.47398119 27.04243485 -121 27 C-121 26.67 -121 26.34 -121 26 C-120.34204437 25.99191315 -119.68408875 25.98382629 -119.00619507 25.97549438 C-112.09411854 25.88874625 -105.18230598 25.78922141 -98.27050781 25.68261719 C-95.69861317 25.64457713 -93.12666984 25.60968307 -90.5546875 25.578125 C-86.83576164 25.53192716 -83.11716393 25.47402838 -79.3984375 25.4140625 C-78.26763763 25.40251129 -77.13683777 25.39096008 -75.97177124 25.37905884 C-61.85331894 25.54931429 -61.85331894 25.54931429 -49 21 C-46.9140625 20.65625 -46.9140625 20.65625 -44.625 20.5 C-41.05310375 20.18159758 -38.30889726 19.41809883 -35 18 C-33.68 18 -32.36 18 -31 18 C-31 17.34 -31 16.68 -31 16 C-30.030625 15.690625 -29.06125 15.38125 -28.0625 15.0625 C-25.15934208 14.30476658 -25.15934208 14.30476658 -24 13 C-22.33382885 12.95936168 -20.66611905 12.957279 -19 13 C-19 12.34 -19 11.68 -19 11 C-18.360625 10.87625 -17.72125 10.7525 -17.0625 10.625 C-16.381875 10.41875 -15.70125 10.2125 -15 10 C-14.67 9.34 -14.34 8.68 -14 8 C-11.66666667 7 -9.33333333 6 -7 5 C-6.67 4.34 -6.34 3.68 -6 3 C-4.34795544 2.29788106 -2.68076231 1.63028587 -1 1 C-0.67 0.67 -0.34 0.34 0 0 Z " fill="#4F4F4F" transform="translate(375,303)"/>
<path d="M0 0 C1.86129367 -0.00202739 3.72258657 -0.00494432 5.58387756 -0.00869751 C9.45223685 -0.01308194 13.32038612 -0.00681143 17.1887207 0.00732422 C22.12668077 0.02449831 27.06415442 0.01449848 32.00209713 -0.00339317 C35.83270395 -0.01426502 39.66319646 -0.01077053 43.49380684 -0.0030098 C45.31453066 -0.00102154 47.13526515 -0.00341823 48.95597649 -0.01044846 C66.37388784 -0.06301741 66.37388784 -0.06301741 74.16015625 3.3984375 C74.16015625 4.0584375 74.16015625 4.7184375 74.16015625 5.3984375 C73.3253347 5.1858857 73.3253347 5.1858857 72.47364807 4.96903992 C62.61382833 2.80482537 52.72406468 3.12781085 42.6875 3.16796875 C40.71261119 3.16916266 38.7377218 3.16961327 36.76283264 3.1693573 C32.6469461 3.17091335 28.53114762 3.17914065 24.4152832 3.19262695 C19.13248584 3.20971643 13.84978403 3.21343795 8.56696224 3.21268177 C4.49989404 3.21295303 0.43284684 3.21842549 -3.6342144 3.22568321 C-5.58352945 3.22886887 -7.53284687 3.23083705 -9.48216438 3.23157692 C-12.19396191 3.23373587 -14.90565617 3.24246747 -17.61743164 3.25317383 C-18.82904716 3.25249405 -18.82904716 3.25249405 -20.06513977 3.25180054 C-24.08293401 3.18386345 -24.08293401 3.18386345 -27.83984375 4.3984375 C-30.51220585 4.53259222 -33.16234863 4.44162291 -35.83984375 4.3984375 C-35.83984375 4.0684375 -35.83984375 3.7384375 -35.83984375 3.3984375 C-23.8009774 0.6395238 -12.32422402 -0.04801957 0 0 Z " fill="#656565" transform="translate(249.83984375,144.6015625)"/>
<path d="M0 0 C4.01413882 3.28200029 5.0780277 6.7377043 6.1875 11.625 C7.24037083 16.43386391 7.24037083 16.43386391 9 21 C9.24159136 23.67241805 9.42660267 26.32176001 9.5625 29 C9.6042334 29.79873535 9.6459668 30.5974707 9.68896484 31.42041016 C11.29567192 64.91205521 11.29567192 64.91205521 7 73 C6.61709538 74.99110401 6.27395385 76.99100513 6 79 C5.67 79 5.34 79 5 79 C4.875 71.25 4.875 71.25 6 69 C6.27128927 66.09720485 6.47685045 63.2223233 6.625 60.3125 C6.67003662 59.44141602 6.71507324 58.57033203 6.76147461 57.67285156 C7.21106601 47.09576986 6.63370905 36.55894349 6 26 C5.67 26 5.34 26 5 26 C4.95101563 25.22914063 4.90203125 24.45828125 4.8515625 23.6640625 C4.77679688 22.66117188 4.70203125 21.65828125 4.625 20.625 C4.55539062 19.62726563 4.48578125 18.62953125 4.4140625 17.6015625 C4.23636036 14.84491121 4.23636036 14.84491121 2 13 C1.73008094 10.31160615 1.91262643 7.70858064 2 5 C1.34 5 0.68 5 0 5 C-0.5625 3.0625 -0.5625 3.0625 -1 1 C-0.67 0.67 -0.34 0.34 0 0 Z " fill="#555555" transform="translate(416,157)"/>
<path d="M0 0 C3.26213191 1.63106596 3.89135323 4.45505259 5.15319824 7.762146 C6.8790271 14.36107169 6.48294334 21.17417769 6.390625 27.9453125 C6.38315036 29.56769101 6.37746322 31.19007865 6.37347412 32.81246948 C6.35831378 37.05079757 6.31911704 41.28856389 6.2746582 45.52667236 C6.23349629 49.86405848 6.21541876 54.20153672 6.1953125 58.5390625 C6.15261154 67.02629741 6.08447938 75.51307852 6 84 C5.34 84 4.68 84 4 84 C3.98969254 83.31778381 3.97938507 82.63556763 3.96876526 81.93267822 C3.86951526 75.40488174 3.76685753 68.87714796 3.66066074 62.3494606 C3.60621714 58.99601708 3.5533271 55.64256681 3.50268555 52.2890625 C3.22205769 33.3820714 3.22205769 33.3820714 2.58984375 14.484375 C2.56112686 13.69710022 2.53240997 12.90982544 2.50282288 12.09869385 C2.28844005 7.75075808 1.58223491 4.05725941 0 0 Z " fill="#C3C3C4" transform="translate(166,338)"/>
<path d="M0 0 C13.77835673 -0.023209 27.55670878 -0.04095867 41.3350811 -0.05181217 C47.73348559 -0.05702229 54.13187667 -0.06408589 60.53027344 -0.07543945 C66.70943457 -0.08633491 72.88858284 -0.09229093 79.06775284 -0.09487724 C81.42074918 -0.09671951 83.77374485 -0.10031694 86.12673569 -0.10573006 C89.43199923 -0.11302889 92.73721012 -0.11398722 96.04248047 -0.11352539 C97.00705673 -0.11712067 97.971633 -0.12071594 98.96543884 -0.12442017 C115.90104944 -0.09895056 115.90104944 -0.09895056 118 2 C119.51469448 2.23192865 121.03754562 2.41215238 122.5625 2.5625 C123.80193359 2.68818359 123.80193359 2.68818359 125.06640625 2.81640625 C125.70449219 2.87699219 126.34257812 2.93757813 127 3 C127.495 4.485 127.495 4.485 128 6 C129.11375 5.95875 130.2275 5.9175 131.375 5.875 C135 6 135 6 137 8 C138.52056618 8.59834554 140.06612088 9.13506656 141.625 9.625 C142.44226563 9.88539062 143.25953125 10.14578125 144.1015625 10.4140625 C144.72804688 10.60742188 145.35453125 10.80078125 146 11 C146 11.33 146 11.66 146 12 C141.07284004 12.46192125 137.49267375 10.8275283 133 9 C133 8.34 133 7.68 133 7 C132.0925 7.04125 131.185 7.0825 130.25 7.125 C127 7 127 7 125.125 6.03125 C122.60420536 4.80792319 120.534413 4.59482208 117.75 4.375 C116.85796875 4.30023438 115.9659375 4.22546875 115.046875 4.1484375 C114.37140625 4.09945312 113.6959375 4.05046875 113 4 C113 3.34 113 2.68 113 2 C75.71 1.67 38.42 1.34 0 1 C0 0.67 0 0.34 0 0 Z " fill="#7C7C7C" transform="translate(210,80)"/>
<path d="M0 0 C3 1 3 1 5 4 C5 5.32 5 6.64 5 8 C5.66 8 6.32 8 7 8 C7.99963678 11.22698282 8.99432361 14.45516777 9.9765625 17.6875 C10.68907661 19.99365254 11.45084891 22.28491939 12.25 24.5625 C13.92152442 32.2236536 14.0229308 39.1461179 10 46 C9.17599613 48.59318866 8.45084683 51.20023216 7.74609375 53.828125 C7 56 7 56 5 58 C3.96157435 60.31648799 2.9578025 62.64903024 2 65 C0.60804085 60.82412255 2.17676781 58.86525224 4 55 C4.66 55 5.32 55 6 55 C6.144375 54.113125 6.28875 53.22625 6.4375 52.3125 C6.76103819 50.40721953 7.10901265 48.50500443 7.5246582 46.61767578 C8.35138385 42.06495245 8.18450714 37.48998855 8.1875 32.875 C8.19974609 31.87339844 8.21199219 30.87179688 8.22460938 29.83984375 C8.22654297 28.87949219 8.22847656 27.91914063 8.23046875 26.9296875 C8.23663208 25.61846924 8.23663208 25.61846924 8.24291992 24.28076172 C8.14840558 21.72052816 8.14840558 21.72052816 6 19 C5.92094936 16.66800612 5.91201231 14.33167378 6 12 C5.34 12 4.68 12 4 12 C4 9.69 4 7.38 4 5 C3.34 5 2.68 5 2 5 C1.34 3.35 0.68 1.7 0 0 Z " fill="#626261" transform="translate(350,171)"/>
<path d="M0 0 C3.0831351 1.19899698 6.06279492 2.47700477 9 4 C9 4.99 9 5.98 9 7 C10.65 7.33 12.3 7.66 14 8 C14.33 8.99 14.66 9.98 15 11 C15.99 11.33 16.98 11.66 18 12 C18 12.66 18 13.32 18 14 C18.598125 14.268125 19.19625 14.53625 19.8125 14.8125 C21.99847854 15.99917406 23.41332594 17.09599113 25 19 C25 19.66 25 20.32 25 21 C25.99 21.33 26.98 21.66 28 22 C28 22.66 28 23.32 28 24 C28.66 24 29.32 24 30 24 C30.66 25.98 31.32 27.96 32 30 C32.99 30 33.98 30 35 30 C35 31.32 35 32.64 35 34 C35.99 34.33 36.98 34.66 38 35 C38 35.99 38 36.98 38 38 C38.99 38 39.98 38 41 38 C42.60355101 41.50776784 43.22036864 44.14354879 43 48 C43.66 48 44.32 48 45 48 C45.66 50.97 46.32 53.94 47 57 C46.01 56.34 45.02 55.68 44 55 C43.8125 52.375 43.8125 52.375 44 50 C43.34 50 42.68 50 42 50 C41.505 47.03 41.505 47.03 41 44 C40.34 44 39.68 44 39 44 C38.67 43.01 38.34 42.02 38 41 C37.01 40.505 37.01 40.505 36 40 C36 38.68 36 37.36 36 36 C35.34 36 34.68 36 34 36 C31 31.61538462 31 31.61538462 31 29 C30.34 29 29.68 29 29 29 C26 25.53846154 26 25.53846154 26 23 C25.01 22.67 24.02 22.34 23 22 C23 21.34 23 20.68 23 20 C22.34 20 21.68 20 21 20 C21 19.34 21 18.68 21 18 C20.360625 17.731875 19.72125 17.46375 19.0625 17.1875 C17 16 17 16 16 13 C15.01 12.67 14.02 12.34 13 12 C13 11.34 13 10.68 13 10 C10.525 9.01 10.525 9.01 8 8 C8 7.01 8 6.02 8 5 C6.8553125 4.814375 6.8553125 4.814375 5.6875 4.625 C3 4 3 4 0 2 C0 1.34 0 0.68 0 0 Z " fill="#464646" transform="translate(369,100)"/>
<path d="M0 0 C0.66 0.33 1.32 0.66 2 1 C1.50371094 1.30292969 1.00742188 1.60585937 0.49609375 1.91796875 C-2.96312588 4.05126359 -6.35094163 6.21523444 -9.625 8.625 C-11.79469781 10.21282431 -13.66513792 11.3192662 -16.125 12.5 C-19.46678472 14.24353986 -21.37299892 16.29043603 -24 19 C-25.07368477 20.07735377 -26.14929479 21.15279138 -27.2265625 22.2265625 C-27.7834375 22.7834375 -28.3403125 23.3403125 -28.9140625 23.9140625 C-32.609375 27.609375 -36.3046875 31.3046875 -40 35 C-40 31.10210113 -38.82235577 30.40702789 -36.1875 27.625 C-33.3056424 24.56991599 -31.13989805 21.60435342 -29 18 C-24.56756757 14 -24.56756757 14 -22 14 C-22 13.01 -22 12.02 -22 11 C-14.57142857 6.57142857 -14.57142857 6.57142857 -11 6 C-11 5.34 -11 4.68 -11 4 C-10.28972656 3.79503906 -9.57945312 3.59007813 -8.84765625 3.37890625 C-7.92855469 3.10949219 -7.00945312 2.84007813 -6.0625 2.5625 C-5.14597656 2.29566406 -4.22945312 2.02882813 -3.28515625 1.75390625 C-1.0597507 1.20973949 -1.0597507 1.20973949 0 0 Z " fill="#C6C6C6" transform="translate(175,92)"/>
<path d="M0 0 C0 3.20395416 -0.74335022 5.09399739 -2 8 C-2.66 8 -3.32 8 -4 8 C-4.144375 8.969375 -4.28875 9.93875 -4.4375 10.9375 C-5 14 -5 14 -6 15 C-6.12420734 17.29983022 -6.17804453 19.60347386 -6.20532227 21.90649414 C-6.21522186 22.62840439 -6.22512146 23.35031464 -6.23532104 24.09410095 C-6.26702299 26.49108551 -6.29172759 28.88808992 -6.31640625 31.28515625 C-6.33696829 32.94283069 -6.35796455 34.6004998 -6.37937927 36.25816345 C-6.4346775 40.62948295 -6.48405244 45.00085037 -6.53222656 49.37225342 C-6.58238516 53.82959274 -6.6381006 58.28686213 -6.69335938 62.74414062 C-6.80103568 71.4960347 -6.90245945 80.24798712 -7 89 C-7.33 89 -7.66 89 -8 89 C-8.06949027 78.76880588 -8.12280633 68.53766785 -8.15543652 58.30628586 C-8.17109686 53.55550556 -8.19234188 48.80488664 -8.22631836 44.05419922 C-8.25889864 39.47007916 -8.27685024 34.88611441 -8.28463173 30.30188751 C-8.29017763 28.55236618 -8.30100737 26.80285341 -8.31719017 25.05339813 C-8.33894696 22.60409636 -8.34196769 20.15543744 -8.34057617 17.70605469 C-8.351362 16.98172745 -8.36214783 16.25740021 -8.3732605 15.51112366 C-8.35395641 12.37389178 -8.15612155 10.27747587 -6.60371399 7.51837158 C-5 6 -5 6 -3 6 C-2.814375 5.071875 -2.814375 5.071875 -2.625 4.125 C-2 2 -2 2 0 0 Z " fill="#C8C8C8" transform="translate(115,333)"/>
<path d="M0 0 C4.12486838 -0.08676908 8.24950384 -0.14031295 12.375 -0.1875 C13.550625 -0.21263672 14.72625 -0.23777344 15.9375 -0.26367188 C17.61972656 -0.27817383 17.61972656 -0.27817383 19.3359375 -0.29296875 C20.37282715 -0.3086792 21.4097168 -0.32438965 22.47802734 -0.34057617 C23.72640381 -0.17199097 23.72640381 -0.17199097 25 0 C25.66 0.99 26.32 1.98 27 3 C29.05925139 3.72382467 29.05925139 3.72382467 31 4 C31 4.66 31 5.32 31 6 C31.99 6 32.98 6 34 6 C33.67 6.66 33.34 7.32 33 8 C31.68445015 7.5504955 30.37261642 7.09010284 29.0625 6.625 C28.33160156 6.36976563 27.60070312 6.11453125 26.84765625 5.8515625 C25 5 25 5 24 3 C20.52149069 2.82351781 17.04415151 2.71843729 13.5625 2.625 C12.58861328 2.57472656 11.61472656 2.52445312 10.61132812 2.47265625 C3.86574104 2.3372933 0.11860036 3.52599665 -5.14477539 7.79833984 C-5.75699951 8.1948877 -6.36922363 8.59143555 -7 9 C-7.99 8.67 -8.98 8.34 -10 8 C-4.375 4 -4.375 4 -1 4 C-0.67 2.68 -0.34 1.36 0 0 Z " fill="#787878" transform="translate(126,323)"/>
<path d="M0 0 C0.66 0 1.32 0 2 0 C2.09987254 4.51654375 2.1719343 9.03247989 2.21972656 13.54980469 C2.23967724 15.08214534 2.26684816 16.61441152 2.30175781 18.14648438 C2.5003526 27.094932 2.41539227 34.91838856 -2 43 C-2.33 43 -2.66 43 -3 43 C-3.16559782 39.60524471 -3.00355798 37.01181953 -2.01806641 33.73803711 C-0.9835515 29.93960601 -0.68705663 26.68069902 -0.5859375 22.75390625 C-0.56657135 22.09792953 -0.5472052 21.44195282 -0.5272522 20.76609802 C-0.46811091 18.69835872 -0.42133771 16.63056171 -0.375 14.5625 C-0.33675967 13.14906606 -0.29770455 11.73565391 -0.2578125 10.32226562 C-0.16246548 6.88171148 -0.07819713 3.44099161 0 0 Z " fill="#D9D9D9" transform="translate(169,195)"/>
<path d="M0 0 C0.33 0 0.66 0 1 0 C1.04241723 2.33294775 1.04092937 4.66702567 1 7 C0.67 7.33 0.34 7.66 0 8 C-0.2253331 10.0279979 -0.44767185 12.05674874 -0.62109375 14.08984375 C-1 16 -1 16 -3 18 C-3.309375 19.093125 -3.61875 20.18625 -3.9375 21.3125 C-4.92202113 24.72936744 -6.18235102 26.99692777 -8 30 C-8.70670728 32.69254991 -8.70670728 32.69254991 -9 35 C-9.99 34.67 -10.98 34.34 -12 34 C-11.34 34 -10.68 34 -10 34 C-10.0309375 32.7934375 -10.0309375 32.7934375 -10.0625 31.5625 C-10 29 -10 29 -9 28 C-8.76924918 26.65252916 -8.58846937 25.29622435 -8.4375 23.9375 C-8.293125 22.638125 -8.14875 21.33875 -8 20 C-7.34 20 -6.68 20 -6 20 C-5.814375 18.3603125 -5.814375 18.3603125 -5.625 16.6875 C-5 13 -5 13 -3 10 C-2.3734716 8.02119189 -2.3734716 8.02119189 -1.9375 5.9375 C-1.44398841 3.74728742 -1.00743074 2.01486148 0 0 Z " fill="#404040" transform="translate(424,226)"/>
<path d="M0 0 C0.99 0 1.98 0 3 0 C3 0.66 3 1.32 3 2 C6.60447434 1.8612119 10.20848712 1.71276065 13.8125 1.5625 C14.83666016 1.52318359 15.86082031 1.48386719 16.91601562 1.44335938 C17.89892578 1.40146484 18.88183594 1.35957031 19.89453125 1.31640625 C20.80050049 1.27974854 21.70646973 1.24309082 22.63989258 1.20532227 C25.15048782 1.0791795 25.15048782 1.0791795 28 0 C28 0.99 28 1.98 28 3 C19.84393959 4.98151576 11.41895769 6.67615636 3.375 3.625 C1 2 1 2 0 0 Z " fill="#DCDCDC" transform="translate(125,249)"/>
<path d="M0 0 C0.33 0 0.66 0 1 0 C1.04978833 4.0018325 1.08590164 8.00354265 1.10986328 12.00561523 C1.11986243 13.36437118 1.13346624 14.72310594 1.15087891 16.08178711 C1.17539594 18.04531296 1.18546962 20.00900201 1.1953125 21.97265625 C1.20578613 23.15093994 1.21625977 24.32922363 1.22705078 25.54321289 C0.97692853 29.35125693 0.16789726 32.38113496 -1 36 C-1.66 36 -2.32 36 -3 36 C-3.433125 36.86625 -3.433125 36.86625 -3.875 37.75 C-4.24625 38.4925 -4.6175 39.235 -5 40 C-5.309375 40.721875 -5.61875 41.44375 -5.9375 42.1875 C-7 44 -7 44 -10 45 C-8.36923719 40.35859815 -8.36923719 40.35859815 -6.55957031 38.60107422 C-0.02117875 31.88868037 -0.35264925 21.5908541 -0.25 12.875 C-0.20552734 11.01101562 -0.20552734 11.01101562 -0.16015625 9.109375 C-0.09008269 6.07285389 -0.03707645 3.03707277 0 0 Z " fill="#8C8C8D" transform="translate(171,201)"/>
<path d="M0 0 C0.99 0.33 1.98 0.66 3 1 C1.44384991 2.29930979 -0.1202168 3.58914138 -1.6875 4.875 C-2.55761719 5.59429687 -3.42773438 6.31359375 -4.32421875 7.0546875 C-6.86233485 8.89991643 -9.07363646 9.93227276 -12 11 C-12.763125 11.53625 -13.52625 12.0725 -14.3125 12.625 C-18.05934171 14.54198878 -20.82231521 14.21242465 -25 14 C-21.85068462 12.34679644 -18.63194989 11.083871 -15.3125 9.8125 C-10.04435467 7.66788827 -6.07508616 5.02773033 -1.83984375 1.2578125 C-1.23269531 0.84273437 -0.62554687 0.42765625 0 0 Z " fill="#686868" transform="translate(341,247)"/>
<path d="M0 0 C4.01413882 3.28200029 5.0780277 6.7377043 6.1875 11.625 C7.24037083 16.43386391 7.24037083 16.43386391 9 21 C9.13415472 23.6723621 9.04318541 26.32250488 9 29 C8.67 29 8.34 29 8 29 C7.5978125 27.2365625 7.5978125 27.2365625 7.1875 25.4375 C5.59773945 18.70326419 5.59773945 18.70326419 2 13 C1.85884839 10.32941149 1.95752893 7.67567762 2 5 C1.34 5 0.68 5 0 5 C-0.5625 3.0625 -0.5625 3.0625 -1 1 C-0.67 0.67 -0.34 0.34 0 0 Z " fill="#484848" transform="translate(416,157)"/>
<path d="M0 0 C3.85870232 0.57526525 5.89498568 2.35772398 8.75 4.9375 C9.54921875 5.64777344 10.3484375 6.35804688 11.171875 7.08984375 C13 9 13 9 13 11 C13.66 11 14.32 11 15 11 C15.33 12.65 15.66 14.3 16 16 C9.18205134 12.00900566 4.65158005 6.29579415 0 0 Z " fill="#5A5A5A" transform="translate(334,155)"/>
<path d="M0 0 C0.66 0.33 1.32 0.66 2 1 C-5 8 -12 15 -19 22 C-19 16.32281122 -13.69173011 12.02404624 -10 8 C-6.99426995 5.419918 -3.59014974 3.65699219 0 2 C0 1.34 0 0.68 0 0 Z " fill="#E0E0E0" transform="translate(154,105)"/>
<path d="M0 0 C0.33 0 0.66 0 1 0 C1.08857863 3.2914911 1.1409104 6.58266805 1.1875 9.875 C1.22520508 11.25171875 1.22520508 11.25171875 1.26367188 12.65625 C1.33227678 19.15084728 0.55464659 24.97838577 -2 31 C-2.66 31.66 -3.32 32.32 -4 33 C-5.03842565 35.31648799 -6.0421975 37.64903024 -7 40 C-8.39195915 35.82412255 -6.82323219 33.86525224 -5 30 C-4.34 30 -3.68 30 -3 30 C-2.855625 29.113125 -2.71125 28.22625 -2.5625 27.3125 C-2.25503351 25.501864 -1.92658549 23.69257673 -1.5 21.90625 C-0.77373455 17.68483207 -0.63194722 13.46215112 -0.4375 9.1875 C-0.39431641 8.30384766 -0.35113281 7.42019531 -0.30664062 6.50976562 C-0.20108464 4.34000377 -0.10008929 2.1700209 0 0 Z " fill="#404040" transform="translate(359,196)"/>
<path d="M0 0 C3.0831351 1.19899698 6.06279492 2.47700477 9 4 C9 4.99 9 5.98 9 7 C10.65 7.33 12.3 7.66 14 8 C14.33 8.99 14.66 9.98 15 11 C15.99 11.33 16.98 11.66 18 12 C19.6875 15.0625 19.6875 15.0625 21 18 C19.0625 17.1875 19.0625 17.1875 17 16 C16.67 15.01 16.34 14.02 16 13 C15.01 12.67 14.02 12.34 13 12 C13 11.34 13 10.68 13 10 C10.525 9.01 10.525 9.01 8 8 C8 7.01 8 6.02 8 5 C6.8553125 4.814375 6.8553125 4.814375 5.6875 4.625 C3 4 3 4 0 2 C0 1.34 0 0.68 0 0 Z " fill="#555555" transform="translate(369,100)"/>
<path d="M0 0 C0.66 0.33 1.32 0.66 2 1 C0.76985445 4.69043666 -0.04352411 4.96726565 -3.4375 6.6875 C-11.33754674 10.17773229 -19.55779134 9.41793112 -28 9 C-28.33 8.34 -28.66 7.68 -29 7 C-28.17757812 7.02320313 -27.35515625 7.04640625 -26.5078125 7.0703125 C-19.3800605 7.18554175 -12.91147485 6.74377911 -6 5 C-5.27425781 4.855625 -4.54851562 4.71125 -3.80078125 4.5625 C-1.77929878 4.14905582 -1.77929878 4.14905582 -0.75 1.9375 C-0.5025 1.298125 -0.255 0.65875 0 0 Z " fill="#818183" transform="translate(159,246)"/>
<path d="M0 0 C2.86697492 1.28519565 4.97607712 2.57129254 7 5 C7 5.66 7 6.32 7 7 C7.99 7.33 8.98 7.66 10 8 C10 8.66 10 9.32 10 10 C10.66 10 11.32 10 12 10 C15.22265625 15.17578125 15.22265625 15.17578125 16 17 C15.67 17.99 15.34 18.98 15 20 C14.34 18.35 13.68 16.7 13 15 C12.34 15 11.68 15 11 15 C8 11.53846154 8 11.53846154 8 9 C7.01 8.67 6.02 8.34 5 8 C5 7.34 5 6.68 5 6 C4.34 6 3.68 6 3 6 C2.01 4.02 1.02 2.04 0 0 Z " fill="#505050" transform="translate(387,114)"/>
<path d="M0 0 C0 3.72055546 -0.81297638 5.01106771 -3 8 C-4.96918846 9.37843192 -6.96664791 10.71810412 -9 12 C-9.33 12.66 -9.66 13.32 -10 14 C-11.84765625 14.8515625 -11.84765625 14.8515625 -14.0625 15.625 C-15.16271484 16.01558594 -15.16271484 16.01558594 -16.28515625 16.4140625 C-16.85105469 16.60742188 -17.41695313 16.80078125 -18 17 C-18 16.34 -18 15.68 -18 15 C-12.97402597 10.32467532 -12.97402597 10.32467532 -9.5625 9.1875 C-5.36972849 7.24450833 -2.86218807 3.54680366 0 0 Z " fill="#464645" transform="translate(395,286)"/>
<path d="M0 0 C3.81235104 -0.08809201 7.62443553 -0.1407549 11.4375 -0.1875 C13.04141602 -0.22520508 13.04141602 -0.22520508 14.67773438 -0.26367188 C21.36542326 -0.32502682 26.82581597 0.3733807 33 3 C33 3.66 33 4.32 33 5 C32.12601562 4.79503906 31.25203125 4.59007812 30.3515625 4.37890625 C20.2221888 2.15978769 10.35322229 1.34392147 0 1 C0 0.67 0 0.34 0 0 Z " fill="#737373" transform="translate(291,145)"/>
<path d="M0 0 C0.5775 0.226875 1.155 0.45375 1.75 0.6875 C1.09 0.6875 0.43 0.6875 -0.25 0.6875 C-0.25 1.3475 -0.25 2.0075 -0.25 2.6875 C-2.11328125 4.125 -2.11328125 4.125 -4.5625 5.6875 C-5.36300781 6.203125 -6.16351563 6.71875 -6.98828125 7.25 C-7.73464844 7.724375 -8.48101562 8.19875 -9.25 8.6875 C-10.24 9.3475 -11.23 10.0075 -12.25 10.6875 C-13.24 10.6875 -14.23 10.6875 -15.25 10.6875 C-15.58 11.3475 -15.91 12.0075 -16.25 12.6875 C-16.25 11.6975 -16.25 10.7075 -16.25 9.6875 C-15.445625 9.419375 -14.64125 9.15125 -13.8125 8.875 C-12.966875 8.483125 -12.12125 8.09125 -11.25 7.6875 C-10.92 6.6975 -10.59 5.7075 -10.25 4.6875 C-8.93 4.6875 -7.61 4.6875 -6.25 4.6875 C-6.25 4.0275 -6.25 3.3675 -6.25 2.6875 C-3.02697842 -0.42041367 -3.02697842 -0.42041367 0 0 Z " fill="#BBBBBB" transform="translate(203.25,150.3125)"/>
<path d="M0 0 C0.66 0 1.32 0 2 0 C0.49594032 3.24008877 -1.35884093 6.03631777 -3.4375 8.9375 C-5.78328411 12.21551797 -7.96430179 15.52001437 -10 19 C-10.92550505 16.50113636 -11.04422814 15.17248976 -10.375 12.5625 C-8.69508775 9.43175444 -6.56731781 7.44506458 -4 5 C-3.278125 4.071875 -2.55625 3.14375 -1.8125 2.1875 C-1.214375 1.465625 -0.61625 0.74375 0 0 Z " fill="#CECECE" transform="translate(132,128)"/>
<path d="M0 0 C2.64 0 5.28 0 8 0 C8.33 0.99 8.66 1.98 9 3 C10.11375 2.95875 11.2275 2.9175 12.375 2.875 C16 3 16 3 18 5 C19.52056618 5.59834554 21.06612088 6.13506656 22.625 6.625 C23.44226563 6.88539062 24.25953125 7.14578125 25.1015625 7.4140625 C25.72804688 7.60742188 26.35453125 7.80078125 27 8 C27 8.33 27 8.66 27 9 C22.07284004 9.46192125 18.49267375 7.8275283 14 6 C14 5.34 14 4.68 14 4 C13.175 4.061875 12.35 4.12375 11.5 4.1875 C7.11806304 3.95275338 4.04504918 2.67381346 0 1 C0 0.67 0 0.34 0 0 Z " fill="#686868" transform="translate(329,83)"/>
<path d="M0 0 C0.66 0 1.32 0 2 0 C2 0.99 2 1.98 2 3 C0.96939453 3.07347656 0.96939453 3.07347656 -0.08203125 3.1484375 C-1.43361328 3.26058594 -1.43361328 3.26058594 -2.8125 3.375 C-3.70582031 3.44460938 -4.59914063 3.51421875 -5.51953125 3.5859375 C-8.24398499 3.86645036 -8.24398499 3.86645036 -11 6 C-13.91796875 6.1953125 -13.91796875 6.1953125 -17.1875 6.125 C-18.27417969 6.10695313 -19.36085938 6.08890625 -20.48046875 6.0703125 C-21.72763672 6.03550781 -21.72763672 6.03550781 -23 6 C-23 5.67 -23 5.34 -23 5 C-22.31292969 4.95101563 -21.62585938 4.90203125 -20.91796875 4.8515625 C-20.01691406 4.77679688 -19.11585938 4.70203125 -18.1875 4.625 C-17.29417969 4.55539062 -16.40085937 4.48578125 -15.48046875 4.4140625 C-12.75601501 4.13354964 -12.75601501 4.13354964 -10 2 C-7.7734375 1.62109375 -7.7734375 1.62109375 -5.375 1.4375 C-2.38885578 1.41022777 -2.38885578 1.41022777 0 0 Z " fill="#686868" transform="translate(336,322)"/>
<path d="M0 0 C0.66 0.33 1.32 0.66 2 1 C0.42040347 2.29623379 -1.16383413 3.58681327 -2.75 4.875 C-3.63171875 5.59429687 -4.5134375 6.31359375 -5.421875 7.0546875 C-7.60702448 8.70348211 -9.43631859 10.06285595 -12 11 C-12.99 10.67 -13.98 10.34 -15 10 C-13.39598746 6.79197492 -10.19662773 6.36998331 -7 5 C-6.67 4.34 -6.34 3.68 -6 3 C-4.34795544 2.29788106 -2.68076231 1.63028587 -1 1 C-0.67 0.67 -0.34 0.34 0 0 Z " fill="#606060" transform="translate(375,303)"/>
<path d="M0 0 C1.16516703 3.39451994 0.83093313 5.34075897 -0.375 8.6875 C-0.65085937 9.47511719 -0.92671875 10.26273438 -1.2109375 11.07421875 C-2 13 -2 13 -3 14 C-3.24350096 16.80927959 -3.38391001 19.61734162 -3.5234375 22.43359375 C-3.68070312 23.28050781 -3.83796875 24.12742188 -4 25 C-4.99 25.66 -5.98 26.32 -7 27 C-6.7178711 24.72796198 -6.42397144 22.45738316 -6.125 20.1875 C-5.88136719 18.29064453 -5.88136719 18.29064453 -5.6328125 16.35546875 C-5 13 -5 13 -3 10 C-2.29508733 7.67793475 -1.62787571 5.34406932 -1 3 C-0.67 2.01 -0.34 1.02 0 0 Z " fill="#E4E4E4" transform="translate(115,158)"/>
<path d="M0 0 C3 1 3 1 5 4 C5.5815577 6.10919013 6.0953909 8.23754791 6.5625 10.375 C6.81128906 11.49648437 7.06007813 12.61796875 7.31640625 13.7734375 C7.89666994 16.51228211 8.45985929 19.25299868 9 22 C7.5 20.9375 7.5 20.9375 6 19 C5.8125 15.3125 5.8125 15.3125 6 12 C5.34 12 4.68 12 4 12 C4 9.69 4 7.38 4 5 C3.34 5 2.68 5 2 5 C1.34 3.35 0.68 1.7 0 0 Z " fill="#4B4B4A" transform="translate(350,171)"/>
<path d="M0 0 C1.12169695 3.36509086 0.90506078 3.98843462 -0.25 7.1875 C-0.53230469 7.97769531 -0.81460938 8.76789063 -1.10546875 9.58203125 C-1.40066406 10.37996094 -1.69585937 11.17789063 -2 12 C-2.39638672 13.11955078 -2.39638672 13.11955078 -2.80078125 14.26171875 C-3.95413205 17.4615279 -5.10509601 20.15764402 -7 23 C-6.67702486 21.33129513 -6.33986667 19.66534667 -6 18 C-5.81630859 17.00033203 -5.81630859 17.00033203 -5.62890625 15.98046875 C-4.49471138 10.24927165 -2.55455584 5.24552 0 0 Z " fill="#929292" transform="translate(114,158)"/>
<path d="M0 0 C0.66 0.33 1.32 0.66 2 1 C0.79157144 5.43090471 -0.51668565 7.98112756 -4 11 C-4.99 10.67 -5.98 10.34 -7 10 C-6.21625 9.0925 -5.4325 8.185 -4.625 7.25 C-2.69947504 4.94809764 -1.17794259 2.78422793 0 0 Z " fill="#575757" transform="translate(349,236)"/>
<path d="M0 0 C0 4.15560231 -2.2820452 5.84099329 -5 8.6875 C-5.47695312 9.19861328 -5.95390625 9.70972656 -6.4453125 10.23632812 C-7.62359915 11.49709484 -8.81095253 12.74937686 -10 14 C-10 10.40052181 -9.16587393 9.74899383 -7 7 C-6.30419733 5.68163705 -5.62775567 4.35208914 -5 3 C-4.34 3 -3.68 3 -3 3 C-3 2.34 -3 1.68 -3 1 C-2.01 0.67 -1.02 0.34 0 0 Z " fill="#7A7979" transform="translate(143,113)"/>
<path d="M0 0 C0 3 0 3 -1 5 C-1.99 5 -2.98 5 -4 5 C-4 5.99 -4 6.98 -4 8 C-4.66 8 -5.32 8 -6 8 C-6.33 8.99 -6.66 9.98 -7 11 C-7.66 11 -8.32 11 -9 11 C-9 11.66 -9 12.32 -9 13 C-9.66 12.67 -10.32 12.34 -11 12 C-9.92338719 10.5574598 -8.83839897 9.12116839 -7.75 7.6875 C-6.84507812 6.48673828 -6.84507812 6.48673828 -5.921875 5.26171875 C-4.09729864 3.11450388 -2.31702954 1.58398701 0 0 Z " fill="#4A4A4A" transform="translate(195,157)"/>
<path d="M0 0 C0 3.20395416 -0.74335022 5.09399739 -2 8 C-2.99 8 -3.98 8 -5 8 C-5.12375 8.804375 -5.2475 9.60875 -5.375 10.4375 C-5.58125 11.283125 -5.7875 12.12875 -6 13 C-6.99 13.495 -6.99 13.495 -8 14 C-7.45276317 10.62537285 -6.9451 8.91765 -5 6 C-4.34 6 -3.68 6 -3 6 C-2.814375 5.071875 -2.814375 5.071875 -2.625 4.125 C-2 2 -2 2 0 0 Z " fill="#949494" transform="translate(115,333)"/>
<path d="M0 0 C0.86286621 0.23771118 0.86286621 0.23771118 1.74316406 0.48022461 C3.90939777 0.97913326 5.89322683 1.19888324 8.109375 1.31640625 C9.24052734 1.37924805 9.24052734 1.37924805 10.39453125 1.44335938 C11.56048828 1.50233398 11.56048828 1.50233398 12.75 1.5625 C13.93916016 1.62727539 13.93916016 1.62727539 15.15234375 1.69335938 C17.10137815 1.79902991 19.05066748 1.89997966 21 2 C21 2.33 21 2.66 21 3 C14.4 3 7.8 3 1 3 C0.67 2.01 0.34 1.02 0 0 Z " fill="#4A4A4B" transform="translate(127,253)"/>
<path d="M0 0 C0.66 0 1.32 0 2 0 C2 0.99 2 1.98 2 3 C-5.26 3 -12.52 3 -20 3 C-20 2.67 -20 2.34 -20 2 C-19.42967041 1.97494385 -18.85934082 1.9498877 -18.27172852 1.92407227 C-15.70173843 1.80843451 -13.13214473 1.68556376 -10.5625 1.5625 C-9.66466797 1.52318359 -8.76683594 1.48386719 -7.84179688 1.44335938 C-6.98779297 1.40146484 -6.13378906 1.35957031 -5.25390625 1.31640625 C-4.46314697 1.27974854 -3.6723877 1.24309082 -2.85766602 1.20532227 C-0.98598559 1.19436743 -0.98598559 1.19436743 0 0 Z " fill="#E8E8E7" transform="translate(151,249)"/>
<path d="M0 0 C0 0.99 0 1.98 0 3 C-0.66 3 -1.32 3 -2 3 C-2 3.66 -2 4.32 -2 5 C-3.75 6.5078125 -3.75 6.5078125 -6 8.125 C-6.7425 8.66382812 -7.485 9.20265625 -8.25 9.7578125 C-8.8275 10.16773437 -9.405 10.57765625 -10 11 C-10.66 10.67 -11.32 10.34 -12 10 C-10.8803014 8.99406757 -9.7540588 7.9954151 -8.625 7 C-7.99851563 6.443125 -7.37203125 5.88625 -6.7265625 5.3125 C-5 4 -5 4 -3 4 C-3 3.01 -3 2.02 -3 1 C-2.01 0.67 -1.02 0.34 0 0 Z " fill="#929292" transform="translate(156,102)"/>
<path d="M0 0 C-2.3129482 2.3129482 -3.47904875 2.49580975 -6.625 3.125 C-7.44226563 3.29257813 -8.25953125 3.46015625 -9.1015625 3.6328125 C-10.04128906 3.81457031 -10.04128906 3.81457031 -11 4 C-10.18359375 2.05078125 -10.18359375 2.05078125 -9 0 C-5.41410857 -0.99184231 -3.55287397 -1.18429132 0 0 Z " fill="#CBCBCB" transform="translate(189,88)"/>
<path d="M0 0 C0.66 0.33 1.32 0.66 2 1 C0.1875 3.5 0.1875 3.5 -2 6 C-2.99 6 -3.98 6 -5 6 C-5 6.66 -5 7.32 -5 8 C-6.65 8.33 -8.3 8.66 -10 9 C-6.85281112 5.7317654 -3.50647501 2.8689341 0 0 Z " fill="#343434" transform="translate(378,302)"/>
<path d="M0 0 C1.98 0 3.96 0 6 0 C6.33 0.66 6.66 1.32 7 2 C7.99 2.33 8.98 2.66 10 3 C10 3.66 10 4.32 10 5 C7.69 4.67 5.38 4.34 3 4 C3 3.01 3 2.02 3 1 C2.01 0.67 1.02 0.34 0 0 Z " fill="#5D5D5D" transform="translate(324,150)"/>
<path d="M0 0 C0.33 0.66 0.66 1.32 1 2 C0.109375 4.12890625 0.109375 4.12890625 -1.25 6.5625 C-1.68828125 7.36816406 -2.1265625 8.17382812 -2.578125 9.00390625 C-4 11 -4 11 -7 12 C-5.78869178 8.55243044 -4.61489782 6.50594374 -2 4 C-0.82425289 1.90010348 -0.82425289 1.90010348 0 0 Z " fill="#98989A" transform="translate(168,234)"/>
<path d="M0 0 C3.41703059 2.2780204 3.79651189 3.38372165 5.1875 7.125 C5.53167969 8.03507813 5.87585938 8.94515625 6.23046875 9.8828125 C6.48441406 10.58148438 6.73835938 11.28015625 7 12 C4 11 4 11 2 8 C1.18220159 5.35982365 0.6190511 2.69729409 0 0 Z " fill="#7C7C7C" transform="translate(107,231)"/>
<path d="M0 0 C0.99 0 1.98 0 3 0 C2.54917531 1.46067199 2.08906463 2.91848032 1.625 4.375 C1.36976562 5.18710938 1.11453125 5.99921875 0.8515625 6.8359375 C0 9 0 9 -2 11 C-2 9.02 -2 7.04 -2 5 C-1.34 5 -0.68 5 0 5 C0 3.35 0 1.7 0 0 Z " fill="#464646" transform="translate(111,158)"/>
<path d="M0 0 C1.3303125 0.7115625 1.3303125 0.7115625 2.6875 1.4375 C5.57042756 2.79737149 7.87610623 3.54060386 11 4 C11 4.99 11 5.98 11 7 C11.66 7.33 12.32 7.66 13 8 C9.70319035 7.34215037 7.15882078 6.10579427 4.25 4.4375 C3.45078125 3.98246094 2.6515625 3.52742188 1.828125 3.05859375 C1.22484375 2.70925781 0.6215625 2.35992187 0 2 C0 1.34 0 0.68 0 0 Z " fill="#606060" transform="translate(356,92)"/>
<path d="M0 0 C6.16456476 0.37742233 9.17375515 2.15870308 14 6 C13.01 6.33 12.02 6.66 11 7 C8.96664791 5.71810412 6.96918846 4.37843192 5 3 C3.35380887 2.28426473 1.69271945 1.5974304 0 1 C0 0.67 0 0.34 0 0 Z " fill="#3D3D3D" transform="translate(351,89)"/>
<path d="M0 0 C0.33 0.66 0.66 1.32 1 2 C-0.6232687 2.6708712 -2.24867578 3.33657029 -3.875 4 C-5.23238281 4.556875 -5.23238281 4.556875 -6.6171875 5.125 C-9 6 -9 6 -11 6 C-11 5.01 -11 4.02 -11 3 C-9.9275 2.87625 -8.855 2.7525 -7.75 2.625 C-4.62136385 2.10356064 -2.66519576 1.59911746 0 0 Z " fill="#454545" transform="translate(367,311)"/>
<path d="M0 0 C0.33 0 0.66 0 1 0 C0.88637738 1.4800841 0.75877092 2.95910074 0.625 4.4375 C0.52058594 5.67306641 0.52058594 5.67306641 0.4140625 6.93359375 C0.27742187 7.61550781 0.14078125 8.29742187 0 9 C-0.99 9.495 -0.99 9.495 -2 10 C-2.1953125 3.9453125 -2.1953125 3.9453125 -2 2 C-1.34 1.34 -0.68 0.68 0 0 Z " fill="#D4D4D4" transform="translate(173,183)"/>
<path d="M0 0 C0.66 0 1.32 0 2 0 C1.6875 1.875 1.6875 1.875 1 4 C-2 6 -2 6 -5 6 C-5.33 6.66 -5.66 7.32 -6 8 C-6 7.01 -6 6.02 -6 5 C-5.195625 4.731875 -4.39125 4.46375 -3.5625 4.1875 C-2.716875 3.795625 -1.87125 3.40375 -1 3 C-0.67 2.01 -0.34 1.02 0 0 Z " fill="#CCCCCC" transform="translate(193,155)"/>
<path d="M0 0 C-1.77945087 4.04420651 -4.39529673 7.46078487 -7 11 C-7.33 10.01 -7.66 9.02 -8 8 C-4 0 -4 0 0 0 Z " fill="#E4E4E4" transform="translate(134,128)"/>
<path d="M0 0 C3.0831351 1.19899698 6.06279492 2.47700477 9 4 C9 4.99 9 5.98 9 7 C9.66 7 10.32 7 11 7 C10.67 7.66 10.34 8.32 10 9 C9.34 8.67 8.68 8.34 8 8 C8 7.01 8 6.02 8 5 C6.8553125 4.814375 6.8553125 4.814375 5.6875 4.625 C3 4 3 4 0 2 C0 1.34 0 0.68 0 0 Z " fill="#5E5E5E" transform="translate(369,100)"/>
<path d="M0 0 C2.3125 0.1875 2.3125 0.1875 5 1 C6.875 3.4375 6.875 3.4375 8 6 C7.67 6.66 7.34 7.32 7 8 C5.83035398 6.8572081 4.66435444 5.71068285 3.5 4.5625 C2.8503125 3.92441406 2.200625 3.28632813 1.53125 2.62890625 C0 1 0 1 0 0 Z " fill="#59595A" transform="translate(160,331)"/>
<path d="M0 0 C0.33 0.66 0.66 1.32 1 2 C1.99 2.33 2.98 2.66 4 3 C4 3.66 4 4.32 4 5 C5.32 5.33 6.64 5.66 8 6 C8 6.66 8 7.32 8 8 C4.21479387 7.45925627 2.40822445 5.92427254 0 3 C0 2.01 0 1.02 0 0 Z " fill="#D6D6D6" transform="translate(115,241)"/>
<path d="M0 0 C1.98 0 3.96 0 6 0 C3.11576306 2.2432954 0.27363833 4.36318083 -3 6 C-5.3125 5.6875 -5.3125 5.6875 -7 5 C-2.25 2 -2.25 2 0 2 C0 1.34 0 0.68 0 0 Z " fill="#5A5A5A" transform="translate(203,151)"/>
<path d="M0 0 C0.66 0 1.32 0 2 0 C1.35455571 3.48539917 -0.10134397 6.02819057 -2 9 C-2.6875 7.3125 -2.6875 7.3125 -3 5 C-1.6875 2.25 -1.6875 2.25 0 0 Z " fill="#E1E1E1" transform="translate(177,173)"/>
<path d="M0 0 C1.93681161 -0.08107583 3.8745934 -0.13922475 5.8125 -0.1875 C6.89144531 -0.22230469 7.97039062 -0.25710937 9.08203125 -0.29296875 C12 0 12 0 13.88671875 1.51171875 C14.25410156 2.00285156 14.62148438 2.49398437 15 3 C14.38125 2.855625 13.7625 2.71125 13.125 2.5625 C8.77462983 1.77943337 4.39978093 1.40153341 0 1 C0 0.67 0 0.34 0 0 Z " fill="#434343" transform="translate(317,80)"/>
<path d="M0 0 C0.90105469 0.02707031 1.80210937 0.05414063 2.73046875 0.08203125 C3.76107422 0.13423828 3.76107422 0.13423828 4.8125 0.1875 C4.8125 0.5175 4.8125 0.8475 4.8125 1.1875 C3.1109375 1.4040625 3.1109375 1.4040625 1.375 1.625 C-1.99527201 1.79921478 -1.99527201 1.79921478 -3.1875 3.1875 C-4.85367115 3.22813832 -6.52138095 3.230221 -8.1875 3.1875 C-5.67753317 0.01043235 -3.96125134 -0.15433447 0 0 Z " fill="#424242" transform="translate(333.1875,324.8125)"/>
<path d="M0 0 C-1.90401138 1.90401138 -3.33425686 2.93520439 -6.046875 3.19921875 C-8.03233273 3.1886578 -10.0169914 3.09915043 -12 3 C-7.59360646 0.79680323 -5.02549129 -0.10924981 0 0 Z " fill="#6E6E6E" transform="translate(328,258)"/>
<path d="M0 0 C4.30840713 1.07710178 7.63576723 2.03947516 11 5 C6.94393835 4.53199289 3.53411321 4.12046792 0 2 C0 1.34 0 0.68 0 0 Z " fill="#939394" transform="translate(119,248)"/>
<path d="M0 0 C0.66 0.33 1.32 0.66 2 1 C0.61122646 4.35620271 -0.91677965 6.07298728 -4 8 C-4.66 8 -5.32 8 -6 8 C-5.67 7.01 -5.34 6.02 -5 5 C-4.34 5 -3.68 5 -3 5 C-3 4.34 -3 3.68 -3 3 C-1.5 1.375 -1.5 1.375 0 0 Z " fill="#E1E0E1" transform="translate(161,241)"/>
<path d="M0 0 C0.33 0 0.66 0 1 0 C1.4726477 8.19256018 1.4726477 8.19256018 -0.5 11.5625 C-0.995 12.036875 -1.49 12.51125 -2 13 C-2.23509196 8.18061476 -1.45184478 4.53701494 0 0 Z " fill="#E5E5E6" transform="translate(168,225)"/>
<path d="M0 0 C0.66 0.33 1.32 0.66 2 1 C0.73760288 1.86658615 -0.53527501 2.71792059 -1.8125 3.5625 C-2.87404297 4.27599609 -2.87404297 4.27599609 -3.95703125 5.00390625 C-6 6 -6 6 -9 5 C-3.375 1.125 -3.375 1.125 0 0 Z " fill="#959595" transform="translate(125,326)"/>
<path d="M0 0 C0.33 0 0.66 0 1 0 C1.24042276 4.08718695 0.42258812 7.17679443 -1 11 C-1.33 11 -1.66 11 -2 11 C-2.25 3.375 -2.25 3.375 0 0 Z " fill="#3B3B3B" transform="translate(108,171)"/>
<path d="M0 0 C0.66 0.66 1.32 1.32 2 2 C0.35 4.31 -1.3 6.62 -3 9 C-3.33 8.01 -3.66 7.02 -4 6 C-2.0625 2.8125 -2.0625 2.8125 0 0 Z " fill="#6B6B6B" transform="translate(354,231)"/>
<path d="M0 0 C0.99 0 1.98 0 3 0 C3.66 2.97 4.32 5.94 5 9 C4.01 8.34 3.02 7.68 2 7 C1.8125 4.375 1.8125 4.375 2 2 C1.34 2 0.68 2 0 2 C0 1.34 0 0.68 0 0 Z " fill="#545454" transform="translate(411,148)"/>
</svg>
