<?xml version="1.0" encoding="UTF-8"?>
<svg version="1.1" xmlns="http://www.w3.org/2000/svg" width="500" height="500">
<path d="M0 0 C165 0 330 0 500 0 C500 165 500 330 500 500 C335 500 170 500 0 500 C0 335 0 170 0 0 Z " fill="#222323" transform="translate(0,0)"/>
<path d="M0 0 C1.13824219 -0.03738281 2.27648437 -0.07476562 3.44921875 -0.11328125 C12.16511717 -0.2033422 18.9068957 1.37617659 25.51586914 7.29101562 C30.02519 11.89408918 33.375 17.76970061 33.375 24.375 C36.015 24.375 38.655 24.375 41.375 24.375 C41.38958252 25.29837158 41.40416504 26.22174316 41.41918945 27.1730957 C41.48026308 30.60077204 41.5544161 34.02764662 41.63745117 37.45483398 C41.67069423 38.93779854 41.69872823 40.42088944 41.72143555 41.90405273 C41.75499468 44.03684293 41.80730638 46.16847612 41.86328125 48.30078125 C41.88946533 49.58380127 41.91564941 50.86682129 41.94262695 52.1887207 C42.12441698 55.31674744 42.12441698 55.31674744 43.68823242 57.29370117 C46.55423037 59.13094316 49.08685187 58.72730159 52.375 58.375 C54.47858381 56.83237187 55.21554159 55.69391683 56.375 53.375 C56.52941209 51.27125004 56.62492639 49.16304881 56.69140625 47.0546875 C56.73330078 45.79785156 56.77519531 44.54101562 56.81835938 43.24609375 C56.85767578 41.92738281 56.89699219 40.60867187 56.9375 39.25 C56.98069512 37.91014249 57.02430973 36.57029844 57.06835938 35.23046875 C57.1747091 31.9454438 57.27538317 28.66023602 57.375 25.375 C61.995 25.375 66.615 25.375 71.375 25.375 C71.467369 29.64450028 71.54682767 33.91046837 71.59472656 38.18017578 C71.61471295 39.62918917 71.64191197 41.07812325 71.67675781 42.52685547 C72.0297356 57.59070181 72.0297356 57.59070181 67.375 64.375 C60.83996863 69.89347093 53.68765625 70.85388298 45.37890625 70.6875 C39.42251303 70.06784921 34.48874714 67.97521487 30.4375 63.5 C26.450286 57.45876667 26.09366896 52.4082761 26.375 45.375 C25.83230469 45.72433594 25.28960937 46.07367188 24.73046875 46.43359375 C24.01503906 46.88863281 23.29960937 47.34367187 22.5625 47.8125 C21.50095703 48.49119141 21.50095703 48.49119141 20.41796875 49.18359375 C17.25928179 51.02565785 14.72848134 51.49807434 11.14453125 51.47265625 C10.42112549 51.47015869 9.69771973 51.46766113 8.95239258 51.46508789 C7.58377075 51.45143188 7.58377075 51.45143188 6.1875 51.4375 C3.279375 51.416875 0.37125 51.39625 -2.625 51.375 C-2.625 57.645 -2.625 63.915 -2.625 70.375 C-6.915 70.375 -11.205 70.375 -15.625 70.375 C-15.625 59.815 -15.625 49.255 -15.625 38.375 C-2 38.1875 -2 38.1875 2.26416016 38.16723633 C9.7383996 38.18228618 9.7383996 38.18228618 16.2109375 34.94921875 C19.2052116 31.38743783 19.76864715 29.18432125 19.734375 24.48046875 C19.09918186 20.75906547 17.03520984 18.97187151 14.375 16.375 C10.40815769 14.39157885 5.42406262 15.14626295 1.0625 15.125 C-0.50661133 15.0940625 -0.50661133 15.0940625 -2.10742188 15.0625 C-3.11998047 15.05734375 -4.13253906 15.0521875 -5.17578125 15.046875 C-6.10044189 15.0375293 -7.02510254 15.02818359 -7.9777832 15.01855469 C-11.15685155 15.44661332 -13.0273953 16.52669345 -15.625 18.375 C-18.35282485 22.30102828 -18.38195162 27.06613036 -18.96484375 31.6953125 C-19.625 34.375 -19.625 34.375 -22.625 36.375 C-26.125 36.75 -26.125 36.75 -29.625 36.375 C-31.8461682 34.18461011 -32.56211237 32.76648965 -33.05859375 29.67578125 C-33.07046916 20.5910895 -31.55916777 14.16381848 -25.1875 7.5 C-17.26463327 0.18658455 -10.40027946 0.12697345 0 0 Z " fill="#A7A7A7" transform="translate(159.625,196.625)"/>
<path d="M0 0 C12.87 0 25.74 0 39 0 C39 3.3 39 6.6 39 10 C31.08 10 23.16 10 15 10 C15 11.98 15 13.96 15 16 C21.93 16 28.86 16 36 16 C36 19.63 36 23.26 36 27 C29.07 27 22.14 27 15 27 C15 28.98 15 30.96 15 33 C22.92 33 30.84 33 39 33 C39 36.63 39 40.26 39 44 C26.13 44 13.26 44 0 44 C0 29.48 0 14.96 0 0 Z " fill="#F6F6F6" transform="translate(329,222)"/>
<path d="M0 0 C2.35843491 1.86734692 3.99732292 3.60268577 5.51953125 6.203125 C5.61328125 8.86328125 5.61328125 8.86328125 5.51953125 11.203125 C3.39514786 11.28391141 1.26989895 11.34221641 -0.85546875 11.390625 C-2.63050781 11.44283203 -2.63050781 11.44283203 -4.44140625 11.49609375 C-5.94574219 11.35107422 -5.94574219 11.35107422 -7.48046875 11.203125 C-8.14046875 10.213125 -8.80046875 9.223125 -9.48046875 8.203125 C-11.45793997 7.84014564 -11.45793997 7.84014564 -13.60546875 8.015625 C-14.88421875 8.0775 -16.16296875 8.139375 -17.48046875 8.203125 C-17.15046875 9.523125 -16.82046875 10.843125 -16.48046875 12.203125 C-14.86978516 12.53183594 -14.86978516 12.53183594 -13.2265625 12.8671875 C0.9520159 15.95664436 0.9520159 15.95664436 6.51953125 22.203125 C8.05550579 25.27507408 7.74603505 27.80556793 7.51953125 31.203125 C5.77790312 35.87802156 3.72826228 38.52484162 -0.48046875 41.203125 C-8.19564754 44.41778283 -17.78403091 44.68332359 -25.54296875 41.515625 C-29.11789073 39.6396109 -31.4760622 37.79435341 -33.48046875 34.203125 C-34.23046875 30.390625 -34.23046875 30.390625 -34.48046875 27.203125 C-29.86046875 27.203125 -25.24046875 27.203125 -20.48046875 27.203125 C-19.82046875 28.523125 -19.16046875 29.843125 -18.48046875 31.203125 C-15.18046875 31.203125 -11.88046875 31.203125 -8.48046875 31.203125 C-8.15046875 30.213125 -7.82046875 29.223125 -7.48046875 28.203125 C-8.63804687 27.96078125 -9.795625 27.7184375 -10.98828125 27.46875 C-12.52749021 27.13087486 -14.06654476 26.79229575 -15.60546875 26.453125 C-16.74628906 26.21722656 -16.74628906 26.21722656 -17.91015625 25.9765625 C-23.75549444 24.66640049 -28.11222216 22.70182585 -32.32421875 18.2578125 C-34.48410002 14.4196451 -34.18593419 10.4560738 -33.48046875 6.203125 C-31.56823683 2.11519809 -28.06228031 -0.77014416 -23.828125 -2.32421875 C-16.01957442 -3.89632294 -6.966811 -4.31061944 0 0 Z " fill="#F8F8F8" transform="translate(315.48046875,223.796875)"/>
<path d="M0 0 C4.62 0 9.24 0 14 0 C14.03738281 2.13082031 14.07476562 4.26164063 14.11328125 6.45703125 C14.15950257 8.5223208 14.21073366 10.58742953 14.26245117 12.65258789 C14.29569001 14.08704628 14.32372535 15.52163513 14.34643555 16.95629883 C14.38000271 19.01960807 14.43231413 21.08172303 14.48828125 23.14453125 C14.51446533 24.38565674 14.54064941 25.62678223 14.56762695 26.90551758 C14.75780164 29.95316985 14.75780164 29.95316985 16.31323242 31.9050293 C19.1747605 33.76259963 21.70629828 33.35289661 25 33 C27.10358381 31.45737187 27.84054159 30.31891683 29 28 C29.15441209 25.89625004 29.24992639 23.78804881 29.31640625 21.6796875 C29.35830078 20.42285156 29.40019531 19.16601562 29.44335938 17.87109375 C29.48267578 16.55238281 29.52199219 15.23367187 29.5625 13.875 C29.60569512 12.53514249 29.64930973 11.19529844 29.69335938 9.85546875 C29.7997091 6.5704438 29.90038317 3.28523602 30 0 C34.62 0 39.24 0 44 0 C44.092369 4.26950028 44.17182767 8.53546837 44.21972656 12.80517578 C44.23971295 14.25418917 44.26691197 15.70312325 44.30175781 17.15185547 C44.6547356 32.21570181 44.6547356 32.21570181 40 39 C33.46496863 44.51847093 26.31265625 45.47888298 18.00390625 45.3125 C11.90128509 44.67763694 7.0282341 42.55739177 3 37.875 C-0.01319941 33.54352584 -0.13497372 30.73035967 -0.09765625 25.5859375 C-0.0962413 24.85629791 -0.09482635 24.12665833 -0.09336853 23.37490845 C-0.08776531 21.04156415 -0.07521235 18.70831536 -0.0625 16.375 C-0.05748541 14.79427222 -0.05292243 13.21354293 -0.04882812 11.6328125 C-0.03779484 7.75517146 -0.02052811 3.87760193 0 0 Z " fill="#FBFBFB" transform="translate(187,222)"/>
<path d="M0 0 C4.62 0 9.24 0 14 0 C14 10.89 14 21.78 14 33 C21.59 33 29.18 33 37 33 C37 36.63 37 40.26 37 44 C24.79 44 12.58 44 0 44 C0 29.48 0 14.96 0 0 Z " fill="#FCFCFC" transform="translate(240,222)"/>
<path d="M0 0 C3.4375 1 3.4375 1 5.140625 2.546875 C6.99504452 6.0546324 6.75800163 9.38954253 6.625 13.25 C6.61146484 13.99507813 6.59792969 14.74015625 6.58398438 15.5078125 C6.54877204 17.33885416 6.49496851 19.16952169 6.4375 21 C1.8175 21 -2.8025 21 -7.5625 21 C-7.67062003 18.24894578 -7.74984945 15.50214913 -7.8125 12.75 C-7.84601563 11.97269531 -7.87953125 11.19539063 -7.9140625 10.39453125 C-7.97905175 6.59266009 -8.00803868 4.63287847 -5.76953125 1.453125 C-3.5625 0 -3.5625 0 0 0 Z " fill="#F8F8F8" transform="translate(134.5625,247)"/>
<path d="M0 0 C6.4 -0.36923077 6.4 -0.36923077 9.4375 1.5 C9.953125 1.995 10.46875 2.49 11 3 C10.25 9.75 10.25 9.75 8 12 C8.99 14.31 9.98 16.62 11 19 C9.68 19 8.36 19 7 19 C6.319375 17.5459375 6.319375 17.5459375 5.625 16.0625 C4.34213779 12.92920418 4.34213779 12.92920418 2 12 C1.67 14.31 1.34 16.62 1 19 C0.01 19 -0.98 19 -2 19 C-2.24794402 12.4294834 -1.32388229 6.43028541 0 0 Z " fill="#EBEBEB" transform="translate(302,280)"/>
<path d="M0 0 C1.32 0.33 2.64 0.66 4 1 C5.32 6.94 6.64 12.88 8 19 C6.68 19 5.36 19 4 19 C4 17.68 4 16.36 4 15 C1.36 15 -1.28 15 -4 15 C-4.33 16.32 -4.66 17.64 -5 19 C-6.32 18.67 -7.64 18.34 -9 18 C-7.69100294 15.18585648 -6.37721835 12.37397463 -5.0625 9.5625 C-4.68931641 8.76005859 -4.31613281 7.95761719 -3.93164062 7.13085938 C-3.39506836 5.98520508 -3.39506836 5.98520508 -2.84765625 4.81640625 C-2.51773682 4.10943604 -2.18781738 3.40246582 -1.84790039 2.67407227 C-1 1 -1 1 0 0 Z " fill="#D9D9D9" transform="translate(323,280)"/>
<path d="M0 0 C-1.65167557 3.5786304 -3.78286492 6.74820188 -6 10 C-5.34 11.11375 -4.68 12.2275 -4 13.375 C-2 16.75 -2 16.75 -2 19 C-3.32 19 -4.64 19 -6 19 C-6.9765625 17.20963542 -7.953125 15.41927083 -8.9296875 13.62890625 C-9.91410024 11.83381685 -9.91410024 11.83381685 -12 11 C-12 13.64 -12 16.28 -12 19 C-13.32 19 -14.64 19 -16 19 C-15.03644647 6.33029613 -15.03644647 6.33029613 -14 1 C-13.01 1 -12.02 1 -11 1 C-11 3.31 -11 5.62 -11 8 C-10.236875 7.236875 -9.47375 6.47375 -8.6875 5.6875 C-7.800625 4.800625 -6.91375 3.91375 -6 3 C-5.46375 2.401875 -4.9275 1.80375 -4.375 1.1875 C-3 0 -3 0 0 0 Z " fill="#EBEBEB" transform="translate(366,280)"/>
<path d="M0 0 C0 1.32 0 2.64 0 4 C-1.11375 3.79375 -2.2275 3.5875 -3.375 3.375 C-4.57125 3.25125 -5.7675 3.1275 -7 3 C-9.21370051 4.78657757 -9.21370051 4.78657757 -9.1953125 7.1640625 C-9.17210937 7.97617187 -9.14890625 8.78828125 -9.125 9.625 C-9.10695313 10.44226563 -9.08890625 11.25953125 -9.0703125 12.1015625 C-9.04710937 12.72804688 -9.02390625 13.35453125 -9 14 C-6.36 14 -3.72 14 -1 14 C-1 14.99 -1 15.98 -1 17 C-4.04983996 18.52491998 -6.6423369 18.23562548 -10 18 C-12.10358381 16.45737187 -12.84054159 15.31891683 -14 13 C-14.67660495 7.13609041 -14.67660495 7.13609041 -12.953125 4.2421875 C-8.55927508 -1.10797094 -6.63832701 -1.10638784 0 0 Z " fill="#E8E8E8" transform="translate(347,281)"/>
<path d="M0 0 C4.29 0 8.58 0 13 0 C13 0.99 13 1.98 13 3 C11.35 3 9.7 3 8 3 C7.34 8.28 6.68 13.56 6 19 C5.01 19 4.02 19 3 19 C2.79325056 13.21101581 3.40837921 8.57067277 5 3 C3.35 3 1.7 3 0 3 C0 2.01 0 1.02 0 0 Z " fill="#E7E7E7" transform="translate(285,280)"/>
<path d="M0 0 C4.55555556 0.55555556 4.55555556 0.55555556 6 2 C6.04080783 3.99958364 6.04254356 6.00045254 6 8 C2.625 8.625 2.625 8.625 -1 9 C-1.66 8.34 -2.32 7.68 -3 7 C-2.67028521 3.70285207 -2.3773161 2.3773161 0 0 Z " fill="#EAEAEA" transform="translate(132,237)"/>
<path d="M0 0 C0.99 0 1.98 0 3 0 C2.67 2.64 2.34 5.28 2 8 C2.66 8.33 3.32 8.66 4 9 C3.34 9 2.68 9 2 9 C2 11.97 2 14.94 2 18 C0.68 18 -0.64 18 -2 18 C-1.03644647 5.33029613 -1.03644647 5.33029613 0 0 Z " fill="#EEEEEE" transform="translate(352,281)"/>
<path d="M0 0 C1.125 3.75 1.125 3.75 0 6 C1.65 6 3.3 6 5 6 C4.67 6.66 4.34 7.32 4 8 C2.02 8 0.04 8 -2 8 C-2.33 9.65 -2.66 11.3 -3 13 C-4.32 12.67 -5.64 12.34 -7 12 C-6.21619539 10.18408626 -5.42271553 8.37234593 -4.625 6.5625 C-4.18414062 5.55316406 -3.74328125 4.54382813 -3.2890625 3.50390625 C-2 1 -2 1 0 0 Z " fill="#EDEDED" transform="translate(321,286)"/>
<path d="M0 0 C2.475 0.495 2.475 0.495 5 1 C4.67 2.65 4.34 4.3 4 6 C2.68 6 1.36 6 0 6 C0 4.02 0 2.04 0 0 Z " fill="#383939" transform="translate(305,283)"/>
<path d="M0 0 C-1.13499394 3.29148243 -1.99283376 3.9959869 -5.125 5.75 C-6.548125 6.36875 -6.548125 6.36875 -8 7 C-6.13932792 2.84926997 -4.83061881 0 0 0 Z " fill="#DDDDDD" transform="translate(366,280)"/>
<path d="M0 0 C2.0625 0.4375 2.0625 0.4375 4 1 C4 1.99 4 2.98 4 4 C2.68 4.33 1.36 4.66 0 5 C-0.5625 3.0625 -0.5625 3.0625 -1 1 C-0.67 0.67 -0.34 0.34 0 0 Z " fill="#DEDEDE" transform="translate(323,280)"/>
<path d="M0 0 C0.66 0 1.32 0 2 0 C2 1.98 2 3.96 2 6 C0.68 6 -0.64 6 -2 6 C-1.34 4.02 -0.68 2.04 0 0 Z " fill="#2D2D2D" transform="translate(323,286)"/>
</svg>
